<?xml version="1.0" encoding="UTF-8" standalone="no"?>
<!-- Created with Inkscape (http://www.inkscape.org/) -->

<svg
   width="450"
   height="175"
   viewBox="0 0 119.0625 46.302103"
   version="1.1"
   id="svg8028"
   sodipodi:docname="block_diagram.svg"
   inkscape:version="1.1.2 (b8e25be833, 2022-02-05)"
   xmlns:inkscape="http://www.inkscape.org/namespaces/inkscape"
   xmlns:sodipodi="http://sodipodi.sourceforge.net/DTD/sodipodi-0.dtd"
   xmlns="http://www.w3.org/2000/svg"
   xmlns:svg="http://www.w3.org/2000/svg">
  <sodipodi:namedview
     id="namedview8030"
     pagecolor="#ffffff"
     bordercolor="#666666"
     borderopacity="1.0"
     inkscape:pageshadow="2"
     inkscape:pageopacity="0.0"
     inkscape:pagecheckerboard="0"
     inkscape:document-units="mm"
     showgrid="false"
     units="px"
     inkscape:zoom="1.466344"
     inkscape:cx="235.62002"
     inkscape:cy="177.9937"
     inkscape:window-width="1680"
     inkscape:window-height="979"
     inkscape:window-x="1912"
     inkscape:window-y="-8"
     inkscape:window-maximized="1"
     inkscape:current-layer="layer1" />
  <defs
     id="defs8025">
    <marker
       style="overflow:visible"
       id="Arrow2Mend"
       refX="0"
       refY="0"
       orient="auto"
       inkscape:stockid="Arrow2Mend"
       inkscape:isstock="true">
      <path
         transform="scale(-0.6)"
         d="M 8.7185878,4.0337352 -2.2072895,0.01601326 8.7185884,-4.0017078 c -1.7454984,2.3720609 -1.7354408,5.6174519 -6e-7,8.035443 z"
         style="fill:context-stroke;fill-rule:evenodd;stroke:context-stroke;stroke-width:0.625;stroke-linejoin:round"
         id="path13441" />
    </marker>
    <marker
       style="overflow:visible"
       id="marker7893"
       refX="0"
       refY="0"
       orient="auto"
       inkscape:stockid="Arrow2Mend"
       inkscape:isstock="true">
      <path
         transform="scale(-0.6)"
         d="M 8.7185878,4.0337352 -2.2072895,0.01601326 8.7185884,-4.0017078 c -1.7454984,2.3720609 -1.7354408,5.6174519 -6e-7,8.035443 z"
         style="fill:context-stroke;fill-rule:evenodd;stroke:context-stroke;stroke-width:0.625;stroke-linejoin:round"
         id="path7891" />
    </marker>
    <rect
       x="15.11811"
       y="559.37006"
       width="305.99368"
       height="21.281559"
       id="rect630742-5" />
  </defs>
  <g
     inkscape:label="Calque 1"
     inkscape:groupmode="layer"
     id="layer1">
    <g
       aria-label="Methods + Parameters  "
       transform="matrix(0.87662683,0,0,0.91269667,-0.66926601,-102.14731)"
       id="text3162"
       style="font-size:3.52778px;line-height:1.25;text-align:center;text-anchor:middle;white-space:pre;inline-size:60.7538;stroke-width:0.264583">
      <path
         d="m 28.670242,121.33875 h -0.34451 l 0.50643,-2.17902 -1.042142,1.47278 h -0.203261 l -0.361735,-1.53996 -0.52021,2.2462 h -0.322117 l 0.592557,-2.56487 h 0.468533 l 0.346233,1.42799 0.999078,-1.42799 h 0.473701 z"
         style="font-style:italic;-inkscape-font-specification:'sans-serif Italic'"
         id="path633152" />
      <path
         d="m 30.888885,120.16742 q 0.0086,-0.05 0.01206,-0.0844 0.0034,-0.0345 0.0034,-0.0758 0,-0.18431 -0.10163,-0.28766 -0.09991,-0.10336 -0.322117,-0.10336 -0.244602,0 -0.434082,0.15159 -0.189481,0.15158 -0.25666,0.39963 z m -0.647678,1.21612 q -0.399632,0 -0.627008,-0.18776 -0.227376,-0.18776 -0.227376,-0.54949 0,-0.52882 0.334174,-0.90606 0.334174,-0.37896 0.826823,-0.37896 0.327285,0 0.501262,0.16364 0.173978,0.16192 0.173978,0.45647 0,0.0517 -0.0155,0.16365 -0.01378,0.11196 -0.04651,0.2601 h -1.41766 q -0.01034,0.05 -0.0155,0.0982 -0.0034,0.0482 -0.0034,0.0896 0,0.24288 0.148139,0.3824 0.148139,0.13781 0.420302,0.13781 0.189481,0 0.389296,-0.0741 0.201538,-0.0741 0.33762,-0.16709 h 0.01895 l -0.07062,0.34968 q -0.08613,0.031 -0.155029,0.0568 -0.0689,0.0258 -0.1757,0.0517 -0.106798,0.0258 -0.18948,0.0396 -0.08268,0.0138 -0.206706,0.0138 z"
         style="font-style:italic;-inkscape-font-specification:'sans-serif Italic'"
         id="path633154" />
      <path
         d="m 32.876706,119.41467 -0.05857,0.26182 h -0.668349 l -0.206706,0.88712 q -0.01723,0.0672 -0.03101,0.15503 -0.01378,0.0861 -0.01378,0.1378 0,0.12575 0.06373,0.18776 0.06373,0.0603 0.235989,0.0603 0.07062,0 0.167087,-0.0241 0.09819,-0.0241 0.132637,-0.0379 h 0.01723 l -0.06029,0.27906 q -0.09646,0.0241 -0.206706,0.0396 -0.10852,0.0155 -0.192925,0.0155 -0.237712,0 -0.368626,-0.10335 -0.129191,-0.10508 -0.129191,-0.33073 0,-0.0551 0.0069,-0.10852 0.0086,-0.0551 0.02239,-0.12403 l 0.239435,-1.03353 h -0.218764 l 0.05857,-0.26182 h 0.218763 l 0.129191,-0.55294 h 0.32384 l -0.129191,0.55294 z"
         style="font-style:italic;-inkscape-font-specification:'sans-serif Italic'"
         id="path633156" />
      <path
         d="m 34.750839,119.85392 q 0,0.0413 -0.0086,0.11196 -0.0069,0.0706 -0.02067,0.12402 l -0.289388,1.24885 h -0.323839 l 0.253214,-1.09554 q 0.02067,-0.0913 0.03101,-0.15847 0.01206,-0.0689 0.01206,-0.13608 0,-0.1447 -0.07235,-0.21705 -0.07062,-0.0741 -0.25666,-0.0741 -0.130914,0 -0.289388,0.0723 -0.156752,0.0724 -0.306614,0.17226 l -0.332452,1.4366 h -0.323839 l 0.618395,-2.68028 h 0.323839 l -0.223931,0.96979 q 0.184313,-0.12919 0.34451,-0.19809 0.161919,-0.0689 0.332452,-0.0689 0.251492,0 0.391018,0.12747 0.141249,0.12574 0.141249,0.36518 z"
         style="font-style:italic;-inkscape-font-specification:'sans-serif Italic'"
         id="path633158" />
      <path
         d="m 36.94709,120.09507 q 0,0.25838 -0.07924,0.4961 -0.07924,0.23771 -0.223931,0.41341 -0.149862,0.18259 -0.346232,0.28594 -0.196371,0.10163 -0.458198,0.10163 -0.342788,0 -0.535713,-0.19465 -0.191203,-0.19637 -0.191203,-0.54088 0,-0.25838 0.07751,-0.49265 0.07924,-0.23426 0.227376,-0.41685 0.142972,-0.1757 0.349678,-0.28078 0.208428,-0.10507 0.454753,-0.10507 0.332451,0 0.528822,0.18948 0.196371,0.18948 0.196371,0.54432 z m -0.5271,0.72692 q 0.09302,-0.13781 0.141249,-0.31867 0.04995,-0.18087 0.04995,-0.38241 0,-0.24116 -0.115411,-0.36518 -0.115411,-0.12402 -0.325562,-0.12402 -0.167087,0 -0.299723,0.081 -0.132637,0.0792 -0.229099,0.21876 -0.09302,0.13608 -0.142972,0.31867 -0.04995,0.18259 -0.04995,0.37896 0,0.23771 0.115411,0.36518 0.115411,0.12747 0.327284,0.12747 0.165365,0 0.299724,-0.0792 0.134358,-0.0792 0.229099,-0.22048 z"
         style="font-style:italic;-inkscape-font-specification:'sans-serif Italic'"
         id="path633160" />
      <path
         d="m 39.377606,118.65847 -0.620117,2.68028 H 38.43365 l 0.04651,-0.20154 q -0.218763,0.14987 -0.353122,0.20154 -0.132636,0.0534 -0.289388,0.0534 -0.272163,0 -0.43236,-0.17225 -0.158475,-0.17226 -0.158475,-0.50126 0,-0.27734 0.08613,-0.52366 0.08613,-0.24805 0.234267,-0.43408 0.146416,-0.18431 0.346232,-0.29111 0.199816,-0.10852 0.423747,-0.10852 0.153307,0 0.282498,0.0327 0.129191,0.0327 0.241157,0.0982 l 0.192925,-0.83371 z m -0.578776,1.10243 q -0.115411,-0.0603 -0.227376,-0.0879 -0.110244,-0.0293 -0.23599,-0.0293 -0.179145,0 -0.320394,0.0861 -0.139526,0.0861 -0.239434,0.23599 -0.09129,0.13608 -0.141249,0.32729 -0.04823,0.1912 -0.04823,0.37034 0,0.21015 0.08957,0.32212 0.0913,0.11024 0.294556,0.11024 0.144694,0 0.294556,-0.0723 0.151584,-0.0724 0.279053,-0.15848 z"
         style="font-style:italic;-inkscape-font-specification:'sans-serif Italic'"
         id="path633162" />
      <path
         d="m 39.996,121.38526 q -0.215318,0 -0.385851,-0.0534 -0.168809,-0.0534 -0.282498,-0.11541 l 0.07235,-0.34623 h 0.01722 q 0.03617,0.031 0.09302,0.0741 0.05857,0.0413 0.148139,0.0827 0.08096,0.0396 0.184313,0.0689 0.105075,0.0276 0.223931,0.0276 0.242879,0 0.380683,-0.0896 0.137804,-0.0896 0.137804,-0.26355 0,-0.0913 -0.07062,-0.13952 -0.07062,-0.05 -0.203261,-0.081 -0.06718,-0.0155 -0.16192,-0.0345 -0.09302,-0.0189 -0.18948,-0.0448 -0.201538,-0.0568 -0.298001,-0.16364 -0.09646,-0.10852 -0.09646,-0.26355 0,-0.13436 0.05857,-0.2515 0.05857,-0.11713 0.173977,-0.21531 0.110243,-0.093 0.280776,-0.14987 0.170532,-0.0586 0.378961,-0.0586 0.172254,0 0.342787,0.0431 0.172255,0.0431 0.280775,0.1068 l -0.0689,0.33073 h -0.01723 q -0.02756,-0.0224 -0.0844,-0.0603 -0.05512,-0.0379 -0.141249,-0.0775 -0.07407,-0.0327 -0.173978,-0.0568 -0.09819,-0.0241 -0.204983,-0.0241 -0.215319,0 -0.349677,0.0913 -0.134359,0.0896 -0.134359,0.24632 0,0.0861 0.06546,0.1447 0.06546,0.0568 0.199815,0.0896 0.0844,0.0207 0.1757,0.0396 0.09302,0.0172 0.179145,0.0379 0.199816,0.0499 0.299724,0.15502 0.10163,0.10508 0.10163,0.26355 0,0.13264 -0.06373,0.26011 -0.06201,0.12575 -0.180868,0.21876 -0.122301,0.0982 -0.296278,0.15331 -0.173977,0.0551 -0.391019,0.0551 z"
         style="font-style:italic;-inkscape-font-specification:'sans-serif Italic'"
         id="path633164" />
      <path
         d="m 44.97589,120.35345 h -0.938789 v 0.93879 h -0.285943 v -0.93879 h -0.938789 v -0.2756 h 0.938789 v -0.93879 h 0.285943 v 0.93879 h 0.938789 z"
         style="font-style:italic;-inkscape-font-specification:'sans-serif Italic'"
         id="path633166" />
      <path
         d="m 48.389982,120.11747 q -0.158474,0.13091 -0.354845,0.19637 -0.194648,0.0637 -0.470255,0.0637 h -0.373794 l -0.222208,0.96118 h -0.34451 l 0.592557,-2.56487 h 0.675239 q 0.234266,0 0.387573,0.0413 0.153307,0.0413 0.251492,0.11885 0.101631,0.0775 0.15503,0.18948 0.0534,0.11025 0.0534,0.267 0,0.21015 -0.0913,0.39963 -0.09129,0.18776 -0.258383,0.32729 z m -0.0155,-0.66835 q 0,-0.0878 -0.02928,-0.16365 -0.02928,-0.0758 -0.0913,-0.12402 -0.07407,-0.0568 -0.1757,-0.081 -0.09991,-0.0258 -0.261827,-0.0258 h -0.318672 l -0.242879,1.04559 h 0.306613 q 0.206706,0 0.342788,-0.0379 0.137804,-0.0379 0.237711,-0.12057 0.117134,-0.0982 0.173978,-0.22049 0.05857,-0.1223 0.05857,-0.27216 z"
         style="font-style:italic;-inkscape-font-specification:'sans-serif Italic'"
         id="path633168" />
      <path
         d="m 50.136647,120.32417 q -0.265272,0.0103 -0.471978,0.0413 -0.204984,0.0293 -0.339342,0.0861 -0.139527,0.0568 -0.211874,0.15503 -0.07235,0.0965 -0.07235,0.24116 0,0.12402 0.08441,0.18948 0.0844,0.0654 0.261827,0.0654 0.156752,0 0.318672,-0.0689 0.163642,-0.0706 0.304891,-0.16881 z m -0.187758,0.8096 q -0.04651,0.0276 -0.127468,0.0792 -0.07924,0.05 -0.16192,0.0861 -0.08785,0.0396 -0.19637,0.0655 -0.108521,0.0276 -0.24977,0.0276 -0.229099,0 -0.372071,-0.13263 -0.142971,-0.13436 -0.142971,-0.34968 0,-0.2291 0.09991,-0.38585 0.10163,-0.15848 0.299723,-0.25839 0.194648,-0.0982 0.468533,-0.14124 0.275608,-0.0448 0.627008,-0.0551 0.01034,-0.0482 0.01723,-0.0827 0.0069,-0.0362 0.0069,-0.0741 0,-0.0827 -0.03273,-0.13436 -0.03273,-0.0517 -0.09302,-0.0827 -0.06029,-0.031 -0.141249,-0.0413 -0.07924,-0.0121 -0.1757,-0.0121 -0.146417,0 -0.334175,0.0482 -0.187757,0.0465 -0.304891,0.093 h -0.01723 l 0.06373,-0.32384 q 0.09819,-0.0258 0.287666,-0.0586 0.18948,-0.0327 0.363458,-0.0327 0.35829,0 0.537435,0.11196 0.179145,0.11197 0.179145,0.35485 0,0.0465 -0.0086,0.0999 -0.0069,0.0517 -0.01723,0.0982 l -0.301446,1.30569 h -0.322117 z"
         style="font-style:italic;-inkscape-font-specification:'sans-serif Italic'"
         id="path633170" />
      <path
         d="m 52.400076,119.75573 h -0.01723 q -0.0689,-0.0172 -0.129191,-0.0241 -0.05857,-0.009 -0.142972,-0.009 -0.161919,0 -0.322116,0.0741 -0.158475,0.0724 -0.304891,0.1757 l -0.310059,1.36598 h -0.327284 l 0.439249,-1.92408 h 0.327285 l -0.06546,0.28422 q 0.229099,-0.1602 0.387573,-0.22221 0.160197,-0.062 0.306614,-0.062 0.0844,0 0.122301,0.005 0.0379,0.003 0.110243,0.0155 z"
         style="font-style:italic;-inkscape-font-specification:'sans-serif Italic'"
         id="path633172" />
      <path
         d="m 53.76089,120.32417 q -0.265273,0.0103 -0.471978,0.0413 -0.204984,0.0293 -0.339343,0.0861 -0.139526,0.0568 -0.211873,0.15503 -0.07235,0.0965 -0.07235,0.24116 0,0.12402 0.08441,0.18948 0.0844,0.0654 0.261827,0.0654 0.156752,0 0.318672,-0.0689 0.163642,-0.0706 0.304891,-0.16881 z m -0.187758,0.8096 q -0.04651,0.0276 -0.127469,0.0792 -0.07924,0.05 -0.161919,0.0861 -0.08785,0.0396 -0.196371,0.0655 -0.10852,0.0276 -0.249769,0.0276 -0.229099,0 -0.372071,-0.13263 -0.142971,-0.13436 -0.142971,-0.34968 0,-0.2291 0.09991,-0.38585 0.101631,-0.15848 0.299724,-0.25839 0.194648,-0.0982 0.468533,-0.14124 0.275608,-0.0448 0.627008,-0.0551 0.01033,-0.0482 0.01723,-0.0827 0.0069,-0.0362 0.0069,-0.0741 0,-0.0827 -0.03273,-0.13436 -0.03273,-0.0517 -0.09302,-0.0827 -0.06029,-0.031 -0.141249,-0.0413 -0.07924,-0.0121 -0.1757,-0.0121 -0.146417,0 -0.334175,0.0482 -0.187758,0.0465 -0.304891,0.093 h -0.01723 l 0.06373,-0.32384 q 0.09819,-0.0258 0.287665,-0.0586 0.189481,-0.0327 0.363458,-0.0327 0.35829,0 0.537436,0.11196 0.179145,0.11197 0.179145,0.35485 0,0.0465 -0.0086,0.0999 -0.0069,0.0517 -0.01723,0.0982 l -0.301446,1.30569 h -0.322116 z"
         style="font-style:italic;-inkscape-font-specification:'sans-serif Italic'"
         id="path633174" />
      <path
         d="m 57.598728,119.84014 q 0,0.0568 -0.0086,0.12057 -0.0069,0.0637 -0.02239,0.12919 l -0.289388,1.24885 h -0.323839 l 0.253214,-1.09554 q 0.02067,-0.0913 0.03273,-0.16881 0.01378,-0.0775 0.01378,-0.14469 0,-0.13092 -0.06546,-0.20154 -0.06546,-0.0706 -0.249769,-0.0706 -0.136082,0 -0.287666,0.0758 -0.151584,0.0758 -0.301446,0.17742 -0.0034,0.0431 -0.01206,0.0982 -0.0069,0.0551 -0.01723,0.0982 l -0.284221,1.23162 h -0.323839 l 0.253215,-1.09554 q 0.02239,-0.1068 0.03617,-0.17398 0.01378,-0.0689 0.01378,-0.13952 0,-0.15675 -0.08613,-0.2136 -0.08613,-0.0586 -0.232544,-0.0586 -0.103353,0 -0.230821,0.0534 -0.127469,0.0517 -0.339343,0.19121 l -0.332452,1.4366 H 54.47058 l 0.444418,-1.92408 h 0.323839 l -0.04995,0.21359 q 0.180868,-0.12574 0.334175,-0.19637 0.155029,-0.0706 0.325561,-0.0706 0.194648,0 0.315227,0.0827 0.122301,0.0827 0.161919,0.2291 0.227377,-0.16537 0.408244,-0.23771 0.180868,-0.0741 0.356568,-0.0741 0.253215,0 0.380683,0.12574 0.127469,0.12575 0.127469,0.35313 z"
         style="font-style:italic;-inkscape-font-specification:'sans-serif Italic'"
         id="path633176" />
      <path
         d="m 59.460804,120.16742 q 0.0086,-0.05 0.01206,-0.0844 0.0034,-0.0345 0.0034,-0.0758 0,-0.18431 -0.10163,-0.28766 -0.09991,-0.10336 -0.322117,-0.10336 -0.244602,0 -0.434082,0.15159 -0.189481,0.15158 -0.25666,0.39963 z m -0.647678,1.21612 q -0.399632,0 -0.627008,-0.18776 -0.227377,-0.18776 -0.227377,-0.54949 0,-0.52882 0.334175,-0.90606 0.334174,-0.37896 0.826823,-0.37896 0.327285,0 0.501262,0.16364 0.173978,0.16192 0.173978,0.45647 0,0.0517 -0.0155,0.16365 -0.01378,0.11196 -0.04651,0.2601 h -1.417658 q -0.01033,0.05 -0.0155,0.0982 -0.0034,0.0482 -0.0034,0.0896 0,0.24288 0.148139,0.3824 0.148139,0.13781 0.420302,0.13781 0.189481,0 0.389296,-0.0741 0.201538,-0.0741 0.33762,-0.16709 h 0.01895 l -0.07062,0.34968 q -0.08613,0.031 -0.155029,0.0568 -0.0689,0.0258 -0.1757,0.0517 -0.106798,0.0258 -0.18948,0.0396 -0.08268,0.0138 -0.206706,0.0138 z"
         style="font-style:italic;-inkscape-font-specification:'sans-serif Italic'"
         id="path633178" />
      <path
         d="m 61.448623,119.41467 -0.05857,0.26182 h -0.668349 l -0.206705,0.88712 q -0.01723,0.0672 -0.03101,0.15503 -0.01378,0.0861 -0.01378,0.1378 0,0.12575 0.06373,0.18776 0.06373,0.0603 0.235989,0.0603 0.07062,0 0.167087,-0.0241 0.09818,-0.0241 0.132636,-0.0379 h 0.01723 l -0.06029,0.27906 q -0.09646,0.0241 -0.206706,0.0396 -0.108521,0.0155 -0.192926,0.0155 -0.237711,0 -0.368625,-0.10335 -0.129191,-0.10508 -0.129191,-0.33073 0,-0.0551 0.0069,-0.10852 0.0086,-0.0551 0.02239,-0.12403 l 0.239434,-1.03353 h -0.218763 l 0.05857,-0.26182 h 0.218764 l 0.129191,-0.55294 h 0.323839 l -0.129191,0.55294 z"
         style="font-style:italic;-inkscape-font-specification:'sans-serif Italic'"
         id="path633180" />
      <path
         d="m 62.95241,120.16742 q 0.0086,-0.05 0.01206,-0.0844 0.0034,-0.0345 0.0034,-0.0758 0,-0.18431 -0.101631,-0.28766 -0.09991,-0.10336 -0.322116,-0.10336 -0.244602,0 -0.434083,0.15159 -0.18948,0.15158 -0.256659,0.39963 z m -0.647679,1.21612 q -0.399631,0 -0.627007,-0.18776 -0.227377,-0.18776 -0.227377,-0.54949 0,-0.52882 0.334175,-0.90606 0.334174,-0.37896 0.826823,-0.37896 0.327284,0 0.501262,0.16364 0.173977,0.16192 0.173977,0.45647 0,0.0517 -0.0155,0.16365 -0.01378,0.11196 -0.04651,0.2601 h -1.417658 q -0.01033,0.05 -0.0155,0.0982 -0.0034,0.0482 -0.0034,0.0896 0,0.24288 0.148139,0.3824 0.148139,0.13781 0.420302,0.13781 0.18948,0 0.389296,-0.0741 0.201538,-0.0741 0.33762,-0.16709 h 0.01895 l -0.07062,0.34968 q -0.08613,0.031 -0.155029,0.0568 -0.0689,0.0258 -0.1757,0.0517 -0.106798,0.0258 -0.189481,0.0396 -0.08268,0.0138 -0.206706,0.0138 z"
         style="font-style:italic;-inkscape-font-specification:'sans-serif Italic'"
         id="path633182" />
      <path
         d="m 65.050474,119.75573 h -0.01723 q -0.0689,-0.0172 -0.129191,-0.0241 -0.05857,-0.009 -0.142971,-0.009 -0.16192,0 -0.322117,0.0741 -0.158474,0.0724 -0.304891,0.1757 l -0.310059,1.36598 h -0.327284 l 0.43925,-1.92408 h 0.327284 l -0.06546,0.28422 q 0.229099,-0.1602 0.387574,-0.22221 0.160197,-0.062 0.306613,-0.062 0.08441,0 0.122301,0.005 0.0379,0.003 0.110243,0.0155 z"
         style="font-style:italic;-inkscape-font-specification:'sans-serif Italic'"
         id="path633184" />
      <path
         d="m 65.603413,121.38526 q -0.215319,0 -0.385851,-0.0534 -0.16881,-0.0534 -0.282498,-0.11541 l 0.07235,-0.34623 h 0.01722 q 0.03617,0.031 0.09302,0.0741 0.05857,0.0413 0.148139,0.0827 0.08096,0.0396 0.184313,0.0689 0.105075,0.0276 0.223931,0.0276 0.24288,0 0.380684,-0.0896 0.137803,-0.0896 0.137803,-0.26355 0,-0.0913 -0.07062,-0.13952 -0.07062,-0.05 -0.203261,-0.081 -0.06718,-0.0155 -0.161919,-0.0345 -0.09302,-0.0189 -0.189481,-0.0448 -0.201538,-0.0568 -0.298001,-0.16364 -0.09646,-0.10852 -0.09646,-0.26355 0,-0.13436 0.05857,-0.2515 0.05857,-0.11713 0.173978,-0.21531 0.110243,-0.093 0.280775,-0.14987 0.170532,-0.0586 0.378961,-0.0586 0.172255,0 0.342787,0.0431 0.172255,0.0431 0.280776,0.1068 l -0.0689,0.33073 h -0.01723 q -0.02756,-0.0224 -0.08441,-0.0603 -0.05512,-0.0379 -0.141249,-0.0775 -0.07407,-0.0327 -0.173977,-0.0568 -0.09819,-0.0241 -0.204984,-0.0241 -0.215318,0 -0.349677,0.0913 -0.134359,0.0896 -0.134359,0.24632 0,0.0861 0.06546,0.1447 0.06546,0.0568 0.199816,0.0896 0.08441,0.0207 0.1757,0.0396 0.09302,0.0172 0.179145,0.0379 0.199815,0.0499 0.299723,0.15502 0.101631,0.10508 0.101631,0.26355 0,0.13264 -0.06374,0.26011 -0.06201,0.12575 -0.180867,0.21876 -0.122301,0.0982 -0.296279,0.15331 -0.173977,0.0551 -0.391018,0.0551 z"
         style="font-style:italic;-inkscape-font-specification:'sans-serif Italic'"
         id="path633186" />
    </g>
    <g
       aria-label="Simulation Parameters"
       id="text42210"
       style="font-size:2.94397px;line-height:1.25;text-align:center;text-anchor:middle;stroke-width:0.220798"
       transform="matrix(1.0504642,0,0,1.0936868,-4.2513402,-110.70381)">
      <path
         d="m 8.0560471,133.89097 q -0.2084354,0 -0.396746,-0.0431 -0.1883106,-0.0446 -0.3694337,-0.13513 l 0.068999,-0.32631 h 0.020125 q 0.1379986,0.13081 0.337809,0.20125 0.201248,0.069 0.3881211,0.069 0.3061844,0 0.4686202,-0.12075 0.1638733,-0.12219 0.1638733,-0.3105 0,-0.0992 -0.058937,-0.16531 -0.057499,-0.0661 -0.1696232,-0.0978 -0.093437,-0.0259 -0.2228103,-0.0489 -0.1279362,-0.0244 -0.2443725,-0.0517 -0.2256852,-0.0503 -0.3493089,-0.1725 -0.1236237,-0.12218 -0.1236237,-0.30331 0,-0.30618 0.2587473,-0.50887 0.2601849,-0.20412 0.6713057,-0.20412 0.2242477,0 0.4068083,0.0474 0.1839981,0.046 0.3162468,0.10925 l -0.064687,0.30618 h -0.020125 q -0.1020615,-0.0934 -0.2918096,-0.161 -0.1883106,-0.0676 -0.3967459,-0.0676 -0.2616224,0 -0.4183083,0.115 -0.1552484,0.115 -0.1552484,0.29181 0,0.0949 0.056062,0.16675 0.056062,0.0719 0.1998104,0.10781 0.091999,0.0216 0.2443725,0.0532 0.1523735,0.0302 0.2558724,0.0575 0.2041229,0.0561 0.3090594,0.16675 0.1063739,0.11069 0.1063739,0.27887 0,0.14088 -0.068999,0.28031 -0.068999,0.13944 -0.1926231,0.23863 -0.1322486,0.10637 -0.3104968,0.16675 -0.1768107,0.0604 -0.4183082,0.0604 z"
         style="font-style:italic;-inkscape-font-specification:'sans-serif Italic'"
         id="path633189" />
      <path
         d="m 10.095839,131.69737 -0.06469,0.28031 H 9.7264051 l 0.064687,-0.28031 z m -0.1437487,0.54912 -0.3708712,1.60567 H 9.3109719 l 0.3708712,-1.60567 z"
         style="font-style:italic;-inkscape-font-specification:'sans-serif Italic'"
         id="path633191" />
      <path
         d="m 12.726437,132.60155 q 0,0.0474 -0.0072,0.10062 -0.0058,0.0532 -0.01869,0.10781 l -0.241497,1.04218 h -0.270247 l 0.21131,-0.91424 q 0.01725,-0.0762 0.02731,-0.14088 0.0115,-0.0647 0.0115,-0.12075 0,-0.10924 -0.05462,-0.16818 -0.05462,-0.0589 -0.208436,-0.0589 -0.113561,0 -0.24006,0.0632 -0.126499,0.0633 -0.25156,0.14806 -0.0029,0.0359 -0.01006,0.0819 -0.0058,0.046 -0.01438,0.0819 l -0.237185,1.0278 h -0.270247 l 0.21131,-0.91424 q 0.01869,-0.0891 0.03019,-0.14519 0.0115,-0.0575 0.0115,-0.11644 0,-0.13081 -0.07187,-0.17824 -0.07187,-0.0489 -0.194061,-0.0489 -0.08625,0 -0.192623,0.0446 -0.106374,0.0431 -0.283184,0.15956 l -0.277435,1.19887 h -0.270247 l 0.370871,-1.60567 h 0.270247 l -0.04169,0.17824 q 0.150936,-0.10493 0.278872,-0.16387 0.129374,-0.0589 0.271685,-0.0589 0.162436,0 0.26306,0.069 0.102061,0.069 0.135123,0.19119 0.189748,-0.138 0.340684,-0.19837 0.150936,-0.0618 0.29756,-0.0618 0.21131,0 0.317684,0.10494 0.106374,0.10494 0.106374,0.29469 z"
         style="font-style:italic;-inkscape-font-specification:'sans-serif Italic'"
         id="path633193" />
      <path
         d="m 14.682855,132.24649 -0.370872,1.60567 h -0.270247 l 0.04169,-0.17825 q -0.153811,0.10494 -0.287497,0.16387 -0.132249,0.0589 -0.28031,0.0589 -0.206997,0 -0.323434,-0.1035 -0.116436,-0.10494 -0.116436,-0.30475 0,-0.0489 0.0057,-0.0949 0.0072,-0.046 0.01869,-0.10494 l 0.24006,-1.04217 h 0.270247 l -0.21131,0.91424 q -0.01294,0.0561 -0.02444,0.12793 -0.0115,0.0719 -0.0115,0.11356 0,0.12363 0.06181,0.18544 0.06325,0.0618 0.214185,0.0618 0.106374,0 0.242935,-0.0618 0.137999,-0.0618 0.254435,-0.14231 l 0.275997,-1.19886 z"
         style="font-style:italic;-inkscape-font-specification:'sans-serif Italic'"
         id="path633195" />
      <path
         d="m 15.63447,131.61543 -0.517495,2.23673 h -0.270247 l 0.517494,-2.23673 z"
         style="font-style:italic;-inkscape-font-specification:'sans-serif Italic'"
         id="path633197" />
      <path
         d="m 16.827582,133.00548 q -0.221372,0.009 -0.393871,0.0345 -0.17106,0.0244 -0.283184,0.0719 -0.116437,0.0474 -0.176811,0.12938 -0.06037,0.0805 -0.06037,0.20124 0,0.1035 0.07044,0.15813 0.07044,0.0546 0.218498,0.0546 0.130811,0 0.265935,-0.0575 0.136561,-0.0589 0.254435,-0.14087 z m -0.156686,0.67562 q -0.03881,0.023 -0.106373,0.0661 -0.06612,0.0417 -0.135124,0.0719 -0.07331,0.0331 -0.163873,0.0546 -0.09056,0.023 -0.208436,0.023 -0.191185,0 -0.310497,-0.11069 -0.119311,-0.11212 -0.119311,-0.29181 0,-0.19118 0.08337,-0.32199 0.08481,-0.13225 0.250123,-0.21563 0.162436,-0.0819 0.390996,-0.11787 0.229997,-0.0374 0.523244,-0.046 0.0086,-0.0403 0.01437,-0.069 0.0057,-0.0302 0.0057,-0.0618 0,-0.069 -0.02731,-0.11212 -0.02731,-0.0431 -0.07762,-0.069 -0.05031,-0.0259 -0.117874,-0.0345 -0.06612,-0.0101 -0.146624,-0.0101 -0.122186,0 -0.278872,0.0403 -0.156686,0.0388 -0.254435,0.0776 h -0.01437 l 0.05319,-0.27025 q 0.08194,-0.0216 0.240061,-0.0489 0.158123,-0.0273 0.303309,-0.0273 0.298997,0 0.448495,0.0934 0.149499,0.0934 0.149499,0.29612 0,0.0388 -0.0072,0.0834 -0.0057,0.0431 -0.01437,0.0819 l -0.25156,1.08962 h -0.26881 z"
         style="font-style:italic;-inkscape-font-specification:'sans-serif Italic'"
         id="path633199" />
      <path
         d="m 18.624439,132.24649 -0.04887,0.21849 h -0.557744 l -0.172499,0.74031 q -0.01437,0.0561 -0.02587,0.12937 -0.0115,0.0719 -0.0115,0.115 0,0.10494 0.05319,0.15669 0.05319,0.0503 0.196935,0.0503 0.05894,0 0.139436,-0.0201 0.08194,-0.0201 0.110687,-0.0316 h 0.01438 l -0.05031,0.23287 q -0.0805,0.0201 -0.172499,0.0331 -0.09056,0.0129 -0.160998,0.0129 -0.198373,0 -0.307622,-0.0863 -0.107811,-0.0877 -0.107811,-0.27599 0,-0.046 0.0057,-0.0906 0.0072,-0.046 0.01869,-0.10349 l 0.19981,-0.8625 h -0.18256 l 0.04887,-0.21849 h 0.182561 l 0.107811,-0.46144 h 0.270248 l -0.107812,0.46144 z"
         style="font-style:italic;-inkscape-font-specification:'sans-serif Italic'"
         id="path633201" />
      <path
         d="m 19.367619,131.69737 -0.06469,0.28031 h -0.304747 l 0.06469,-0.28031 z m -0.143748,0.54912 -0.370872,1.60567 h -0.270247 l 0.370871,-1.60567 z"
         style="font-style:italic;-inkscape-font-specification:'sans-serif Italic'"
         id="path633203" />
      <path
         d="m 20.966103,132.81429 q 0,0.21563 -0.06612,0.414 -0.06612,0.19837 -0.186873,0.345 -0.125062,0.15237 -0.288935,0.23862 -0.163873,0.0848 -0.382371,0.0848 -0.28606,0 -0.447058,-0.16244 -0.159561,-0.16387 -0.159561,-0.45137 0,-0.21562 0.06469,-0.41112 0.06612,-0.1955 0.189748,-0.34787 0.119311,-0.14662 0.29181,-0.23431 0.173935,-0.0877 0.379496,-0.0877 0.277434,0 0.441308,0.15813 0.163873,0.15812 0.163873,0.45424 z m -0.43987,0.60662 q 0.07762,-0.115 0.117873,-0.26593 0.04169,-0.15094 0.04169,-0.31912 0,-0.20125 -0.09631,-0.30475 -0.09631,-0.1035 -0.271685,-0.1035 -0.139436,0 -0.250122,0.0676 -0.110687,0.0661 -0.191186,0.18256 -0.07762,0.11356 -0.119311,0.26594 -0.04169,0.15237 -0.04169,0.31624 0,0.19838 0.09631,0.30475 0.09631,0.10637 0.273123,0.10637 0.137998,0 0.250122,-0.0661 0.112124,-0.0661 0.191186,-0.184 z"
         style="font-style:italic;-inkscape-font-specification:'sans-serif Italic'"
         id="path633205" />
      <path
         d="m 22.783084,132.61305 q 0,0.0345 -0.0072,0.0934 -0.0057,0.0589 -0.01725,0.1035 l -0.241498,1.04218 h -0.270247 l 0.21131,-0.91424 q 0.01725,-0.0762 0.02587,-0.13225 0.01006,-0.0575 0.01006,-0.11356 0,-0.12075 -0.06037,-0.18113 -0.05894,-0.0618 -0.214185,-0.0618 -0.109249,0 -0.241498,0.0604 -0.130811,0.0604 -0.255872,0.14374 l -0.277435,1.19887 h -0.270247 l 0.370871,-1.60567 h 0.270247 l -0.04169,0.17824 q 0.153811,-0.10781 0.287497,-0.16531 0.135124,-0.0575 0.277435,-0.0575 0.209873,0 0.326309,0.10638 0.117874,0.10493 0.117874,0.30475 z"
         style="font-style:italic;-inkscape-font-specification:'sans-serif Italic'"
         id="path633207" />
      <path
         d="m 8.2148892,136.51294 q -0.1322486,0.10925 -0.296122,0.16388 Q 7.7563314,136.73 7.5263337,136.73 H 7.2143994 l -0.1854356,0.80212 H 6.7414667 l 0.494495,-2.14042 h 0.5634942 q 0.1954981,0 0.3234342,0.0345 0.1279362,0.0345 0.2098729,0.0992 0.084812,0.0647 0.1293737,0.15812 0.044562,0.092 0.044562,0.22281 0,0.17538 -0.076187,0.3335 -0.076187,0.15669 -0.2156228,0.27312 z m -0.012937,-0.55774 q 0,-0.0733 -0.024437,-0.13656 -0.024437,-0.0632 -0.076187,-0.1035 -0.061812,-0.0474 -0.1466235,-0.0676 -0.083374,-0.0216 -0.2184978,-0.0216 H 7.4702718 l -0.2026854,0.87256 h 0.2558724 q 0.1724982,0 0.2860595,-0.0316 0.1149989,-0.0316 0.198373,-0.10062 0.097749,-0.0819 0.145186,-0.184 0.048875,-0.10206 0.048875,-0.22712 z"
         style="font-style:italic;-inkscape-font-specification:'sans-serif Italic'"
         id="path633209" />
      <path
         d="m 9.6724994,136.68544 q -0.2213728,0.009 -0.393871,0.0345 -0.1710608,0.0244 -0.2831846,0.0719 -0.1164363,0.0474 -0.1768107,0.12937 -0.060374,0.0805 -0.060374,0.20125 0,0.1035 0.070437,0.15812 0.070437,0.0546 0.2184978,0.0546 0.1308111,0 0.2659347,-0.0575 0.1365611,-0.0589 0.2544349,-0.14088 z m -0.1566859,0.67562 q -0.038812,0.023 -0.1063739,0.0661 -0.066124,0.0417 -0.1351237,0.0719 -0.073312,0.0331 -0.1638733,0.0546 -0.090562,0.023 -0.2084354,0.023 -0.1911855,0 -0.3104968,-0.11068 -0.1193113,-0.11213 -0.1193113,-0.29181 0,-0.19119 0.083374,-0.322 0.084812,-0.13225 0.2501224,-0.21562 0.1624359,-0.0819 0.390996,-0.11788 0.2299977,-0.0374 0.5232447,-0.046 0.00862,-0.0402 0.014375,-0.069 0.00575,-0.0302 0.00575,-0.0618 0,-0.069 -0.027312,-0.11212 -0.027312,-0.0431 -0.077624,-0.069 -0.050312,-0.0259 -0.1178738,-0.0345 -0.066124,-0.0101 -0.1466235,-0.0101 -0.1221863,0 -0.2788722,0.0403 -0.1566859,0.0388 -0.2544349,0.0776 h -0.014375 l 0.053187,-0.27025 q 0.081937,-0.0216 0.24006,-0.0489 0.1581234,-0.0273 0.3033095,-0.0273 0.2989969,0 0.4484954,0.0934 0.1494983,0.0934 0.1494983,0.29613 0,0.0388 -0.0072,0.0834 -0.0058,0.0431 -0.014374,0.0819 l -0.25156,1.08961 H 9.4755639 Z"
         style="font-style:italic;-inkscape-font-specification:'sans-serif Italic'"
         id="path633211" />
      <path
         d="m 11.561355,136.21107 h -0.01438 q -0.0575,-0.0144 -0.107811,-0.0201 -0.04887,-0.007 -0.119312,-0.007 -0.135123,0 -0.268809,0.0618 -0.132249,0.0604 -0.254435,0.14662 l -0.258748,1.13993 h -0.273122 l 0.366559,-1.60567 h 0.273122 l -0.05462,0.23718 q 0.191185,-0.13368 0.323434,-0.18543 0.133686,-0.0517 0.255872,-0.0517 0.07044,0 0.102062,0.004 0.03162,0.003 0.092,0.0129 z"
         style="font-style:italic;-inkscape-font-specification:'sans-serif Italic'"
         id="path633213" />
      <path
         d="m 12.696969,136.68544 q -0.221373,0.009 -0.393871,0.0345 -0.171061,0.0244 -0.283185,0.0719 -0.116436,0.0474 -0.176811,0.12937 -0.06037,0.0805 -0.06037,0.20125 0,0.1035 0.07044,0.15812 0.07044,0.0546 0.218498,0.0546 0.130811,0 0.265934,-0.0575 0.136561,-0.0589 0.254435,-0.14088 z m -0.156686,0.67562 q -0.03881,0.023 -0.106374,0.0661 -0.06612,0.0417 -0.135124,0.0719 -0.07331,0.0331 -0.163873,0.0546 -0.09056,0.023 -0.208436,0.023 -0.191185,0 -0.310496,-0.11068 -0.119312,-0.11213 -0.119312,-0.29181 0,-0.19119 0.08338,-0.322 0.08481,-0.13225 0.250122,-0.21562 0.162436,-0.0819 0.390996,-0.11788 0.229998,-0.0374 0.523245,-0.046 0.0086,-0.0402 0.01437,-0.069 0.0058,-0.0302 0.0058,-0.0618 0,-0.069 -0.02731,-0.11212 -0.02731,-0.0431 -0.07762,-0.069 -0.05031,-0.0259 -0.117874,-0.0345 -0.06612,-0.0101 -0.146623,-0.0101 -0.122187,0 -0.278872,0.0403 -0.156686,0.0388 -0.254435,0.0776 h -0.01437 l 0.05319,-0.27025 q 0.08194,-0.0216 0.24006,-0.0489 0.158123,-0.0273 0.303309,-0.0273 0.298997,0 0.448496,0.0934 0.149498,0.0934 0.149498,0.29613 0,0.0388 -0.0072,0.0834 -0.0057,0.0431 -0.01437,0.0819 l -0.25156,1.08961 h -0.26881 z"
         style="font-style:italic;-inkscape-font-specification:'sans-serif Italic'"
         id="path633215" />
      <path
         d="m 15.899686,136.28151 q 0,0.0474 -0.0072,0.10062 -0.0058,0.0532 -0.01869,0.10781 l -0.241497,1.04218 h -0.270248 l 0.211311,-0.91424 q 0.01725,-0.0762 0.02731,-0.14087 0.0115,-0.0647 0.0115,-0.12075 0,-0.10925 -0.05463,-0.16819 -0.05462,-0.0589 -0.208435,-0.0589 -0.113561,0 -0.24006,0.0633 -0.126499,0.0632 -0.25156,0.14806 -0.0029,0.0359 -0.01006,0.0819 -0.0058,0.046 -0.01438,0.0819 l -0.237185,1.0278 h -0.270248 l 0.211311,-0.91424 q 0.01869,-0.0891 0.03019,-0.14519 0.0115,-0.0575 0.0115,-0.11643 0,-0.13081 -0.07187,-0.17825 -0.07187,-0.0489 -0.194061,-0.0489 -0.08625,0 -0.192623,0.0446 -0.106374,0.0431 -0.283185,0.15956 l -0.277434,1.19886 h -0.270247 l 0.370871,-1.60567 h 0.270247 l -0.04169,0.17825 q 0.150936,-0.10494 0.278872,-0.16388 0.129374,-0.0589 0.271685,-0.0589 0.162436,0 0.26306,0.069 0.102061,0.069 0.135123,0.19118 0.189748,-0.138 0.340684,-0.19837 0.150936,-0.0618 0.29756,-0.0618 0.21131,0 0.317684,0.10493 0.106374,0.10494 0.106374,0.29469 z"
         style="font-style:italic;-inkscape-font-specification:'sans-serif Italic'"
         id="path633217" />
      <path
         d="m 17.453607,136.55463 q 0.0072,-0.0417 0.01006,-0.0704 0.0029,-0.0288 0.0029,-0.0633 0,-0.15381 -0.08481,-0.24006 -0.08337,-0.0863 -0.26881,-0.0863 -0.204123,0 -0.362246,0.1265 -0.158124,0.1265 -0.214186,0.3335 z m -0.540494,1.01486 q -0.333497,0 -0.523245,-0.15668 -0.189748,-0.15669 -0.189748,-0.45856 0,-0.44131 0.278872,-0.75612 0.278872,-0.31624 0.689993,-0.31624 0.273122,0 0.418308,0.13656 0.145186,0.13512 0.145186,0.38093 0,0.0431 -0.01294,0.13656 -0.0115,0.0934 -0.03881,0.21706 h -1.183051 q -0.0086,0.0417 -0.01294,0.0819 -0.0029,0.0403 -0.0029,0.0748 0,0.20268 0.123624,0.31912 0.123623,0.115 0.350746,0.115 0.158124,0 0.324872,-0.0618 0.168186,-0.0618 0.281747,-0.13944 h 0.01581 l -0.05894,0.29181 q -0.07187,0.0259 -0.129373,0.0474 -0.0575,0.0216 -0.146624,0.0431 -0.08912,0.0216 -0.158123,0.0331 -0.069,0.0115 -0.172498,0.0115 z"
         style="font-style:italic;-inkscape-font-specification:'sans-serif Italic'"
         id="path633219" />
      <path
         d="m 19.112466,135.92645 -0.04888,0.2185 h -0.557744 l -0.172498,0.7403 q -0.01437,0.0561 -0.02587,0.12938 -0.0115,0.0719 -0.0115,0.11499 0,0.10494 0.05319,0.15669 0.05319,0.0503 0.196935,0.0503 0.05894,0 0.139437,-0.0201 0.08194,-0.0201 0.110686,-0.0316 h 0.01437 l -0.05031,0.23288 q -0.0805,0.0201 -0.172498,0.0331 -0.09056,0.0129 -0.160999,0.0129 -0.198373,0 -0.307622,-0.0862 -0.107811,-0.0877 -0.107811,-0.276 0,-0.046 0.0058,-0.0906 0.0072,-0.046 0.01869,-0.1035 l 0.199811,-0.86249 h -0.182561 l 0.04888,-0.2185 h 0.18256 l 0.107812,-0.46143 h 0.270247 l -0.107812,0.46143 z"
         style="font-style:italic;-inkscape-font-specification:'sans-serif Italic'"
         id="path633221" />
      <path
         d="m 20.36739,136.55463 q 0.0072,-0.0417 0.01006,-0.0704 0.0029,-0.0288 0.0029,-0.0633 0,-0.15381 -0.08481,-0.24006 -0.08337,-0.0863 -0.26881,-0.0863 -0.204123,0 -0.362246,0.1265 -0.158124,0.1265 -0.214186,0.3335 z m -0.540494,1.01486 q -0.333497,0 -0.523245,-0.15668 -0.189748,-0.15669 -0.189748,-0.45856 0,-0.44131 0.278872,-0.75612 0.278872,-0.31624 0.689993,-0.31624 0.273122,0 0.418308,0.13656 0.145186,0.13512 0.145186,0.38093 0,0.0431 -0.01294,0.13656 -0.0115,0.0934 -0.03881,0.21706 h -1.183051 q -0.0086,0.0417 -0.01294,0.0819 -0.0029,0.0403 -0.0029,0.0748 0,0.20268 0.123624,0.31912 0.123624,0.115 0.350746,0.115 0.158124,0 0.324872,-0.0618 0.168186,-0.0618 0.281747,-0.13944 h 0.01581 l -0.05894,0.29181 q -0.07187,0.0259 -0.129373,0.0474 -0.0575,0.0216 -0.146624,0.0431 -0.08912,0.0216 -0.158123,0.0331 -0.069,0.0115 -0.172498,0.0115 z"
         style="font-style:italic;-inkscape-font-specification:'sans-serif Italic'"
         id="path633223" />
      <path
         d="m 22.118247,136.21107 h -0.01438 q -0.0575,-0.0144 -0.107811,-0.0201 -0.04888,-0.007 -0.119312,-0.007 -0.135123,0 -0.268809,0.0618 -0.132249,0.0604 -0.254435,0.14662 l -0.258748,1.13993 H 20.82163 l 0.366559,-1.60567 h 0.273122 l -0.05462,0.23718 q 0.191185,-0.13368 0.323434,-0.18543 0.133686,-0.0517 0.255872,-0.0517 0.07044,0 0.102062,0.004 0.03162,0.003 0.092,0.0129 z"
         style="font-style:italic;-inkscape-font-specification:'sans-serif Italic'"
         id="path633225" />
      <path
         d="m 22.57968,137.57093 q -0.179685,0 -0.321996,-0.0446 -0.140874,-0.0446 -0.235748,-0.0963 l 0.06037,-0.28894 h 0.01438 q 0.03019,0.0259 0.07762,0.0618 0.04887,0.0345 0.123623,0.069 0.06756,0.0331 0.153811,0.0575 0.08769,0.023 0.186873,0.023 0.202686,0 0.317685,-0.0747 0.114998,-0.0747 0.114998,-0.21994 0,-0.0762 -0.05894,-0.11644 -0.05894,-0.0417 -0.169623,-0.0676 -0.05606,-0.0129 -0.135123,-0.0288 -0.07762,-0.0158 -0.158124,-0.0374 -0.168186,-0.0474 -0.248685,-0.13656 -0.0805,-0.0906 -0.0805,-0.21994 0,-0.11212 0.04887,-0.20987 0.04887,-0.0978 0.145186,-0.17969 0.092,-0.0776 0.23431,-0.12506 0.142311,-0.0489 0.316246,-0.0489 0.143749,0 0.28606,0.0359 0.143749,0.0359 0.23431,0.0891 l -0.0575,0.276 h -0.01438 q -0.023,-0.0187 -0.07044,-0.0503 -0.046,-0.0316 -0.117874,-0.0647 -0.06181,-0.0273 -0.145186,-0.0474 -0.08194,-0.0201 -0.17106,-0.0201 -0.179686,0 -0.29181,0.0762 -0.112124,0.0747 -0.112124,0.20556 0,0.0719 0.05463,0.12075 0.05462,0.0474 0.166748,0.0747 0.07044,0.0172 0.146623,0.0331 0.07762,0.0144 0.149499,0.0316 0.166748,0.0417 0.250122,0.12937 0.08481,0.0877 0.08481,0.21994 0,0.11068 -0.05319,0.21706 -0.05175,0.10493 -0.150936,0.18256 -0.102061,0.0819 -0.247247,0.12793 -0.145186,0.046 -0.32631,0.046 z"
         style="font-style:italic;-inkscape-font-specification:'sans-serif Italic'"
         id="path633227" />
    </g>
    <g
       aria-label="Figures and reports "
       id="text53512"
       style="font-size:3.53277px;line-height:1.25;text-align:center;text-anchor:middle;stroke-width:0.220798"
       transform="matrix(1.0504642,0,0,1.0936868,-4.2513402,-110.70381)">
      <path
         d="m 104.68829,121.2982 h -1.29891 v 0.72449 h 1.11606 v 0.3036 h -1.11606 v 1.23681 h -0.34155 v -2.5685 h 1.64046 z"
         id="path633230" />
      <path
         d="m 105.40071,121.31372 h -0.3657 v -0.33637 h 0.3657 z m -0.0207,2.24938 h -0.3243 v -1.92681 h 0.3243 z"
         id="path633232" />
      <path
         d="m 107.58454,123.34403 q 0,0.4899 -0.22252,0.71932 -0.22253,0.22942 -0.68482,0.22942 -0.15353,0 -0.30015,-0.0224 -0.1449,-0.0207 -0.28635,-0.0604 v -0.33119 h 0.0173 q 0.0793,0.031 0.25185,0.0759 0.1725,0.0466 0.345,0.0466 0.1656,0 0.27427,-0.0397 0.10867,-0.0397 0.16905,-0.11039 0.0604,-0.0673 0.0862,-0.16215 0.0259,-0.0949 0.0259,-0.21218 v -0.17595 q -0.14662,0.1173 -0.28117,0.17595 -0.13282,0.0569 -0.33982,0.0569 -0.345,0 -0.54855,-0.2484 -0.20182,-0.25012 -0.20182,-0.70379 0,-0.2484 0.069,-0.4278 0.0707,-0.18112 0.19147,-0.31222 0.11213,-0.12248 0.27255,-0.18975 0.16042,-0.069 0.31912,-0.069 0.16733,0 0.27945,0.0345 0.11385,0.0328 0.23977,0.10177 l 0.0207,-0.0828 h 0.3036 z m -0.3243,-0.3105 v -1.05051 q -0.12937,-0.0587 -0.24149,-0.0828 -0.1104,-0.0259 -0.2208,-0.0259 -0.26738,0 -0.4209,0.1794 -0.15352,0.1794 -0.15352,0.52095 0,0.32429 0.11385,0.49162 0.11385,0.16732 0.37777,0.16732 0.14145,0 0.2829,-0.0535 0.14317,-0.0552 0.26219,-0.14663 z"
         id="path633234" />
      <path
         d="m 109.82012,123.5631 h -0.3243 v -0.2139 q -0.16387,0.12938 -0.31394,0.19838 -0.15008,0.069 -0.3312,0.069 -0.3036,0 -0.47265,-0.18458 -0.16904,-0.18629 -0.16904,-0.54509 v -1.25062 h 0.32429 v 1.09709 q 0,0.14663 0.0138,0.25185 0.0138,0.1035 0.0587,0.17768 0.0466,0.0759 0.12075,0.1104 0.0742,0.0345 0.21562,0.0345 0.12593,0 0.27428,-0.0655 0.15007,-0.0656 0.27944,-0.16733 v -1.43864 h 0.3243 z"
         id="path633236" />
      <path
         d="m 111.66068,121.98992 h -0.0173 q -0.0724,-0.0173 -0.14145,-0.0241 -0.0673,-0.009 -0.16042,-0.009 -0.15008,0 -0.2898,0.0673 -0.13972,0.0655 -0.2691,0.17077 v 1.36791 h -0.32429 v -1.92681 h 0.32429 v 0.28463 q 0.1932,-0.15525 0.33983,-0.21908 0.14834,-0.0656 0.30187,-0.0656 0.0845,0 0.12247,0.005 0.0379,0.003 0.11385,0.0155 z"
         id="path633238" />
      <path
         d="m 113.57886,122.63334 h -1.41966 q 0,0.17767 0.0535,0.31049 0.0535,0.1311 0.14662,0.21563 0.0897,0.0828 0.21217,0.1242 0.1242,0.0414 0.27255,0.0414 0.19665,0 0.39502,-0.0776 0.2001,-0.0793 0.28462,-0.15525 h 0.0172 v 0.35362 q -0.16387,0.069 -0.33464,0.11558 -0.17078,0.0466 -0.3588,0.0466 -0.47955,0 -0.74864,-0.25875 -0.2691,-0.26047 -0.2691,-0.73829 0,-0.47265 0.25702,-0.75037 0.25875,-0.27772 0.67965,-0.27772 0.38984,0 0.60029,0.2277 0.21217,0.2277 0.21217,0.64687 z m -0.31567,-0.2484 q -0.002,-0.2553 -0.12937,-0.39502 -0.12593,-0.13973 -0.38467,-0.13973 -0.26048,0 -0.41573,0.15353 -0.15352,0.15352 -0.17422,0.38122 z"
         id="path633240" />
      <path
         d="m 115.44702,123.00766 q 0,0.26392 -0.21907,0.43297 -0.21735,0.16905 -0.59512,0.16905 -0.2139,0 -0.3933,-0.05 -0.17767,-0.0517 -0.29842,-0.11212 v -0.36397 h 0.0173 q 0.15352,0.11557 0.34155,0.18457 0.18802,0.0673 0.36052,0.0673 0.2139,0 0.33465,-0.069 0.12075,-0.069 0.12075,-0.21735 0,-0.11385 -0.0656,-0.1725 -0.0656,-0.0587 -0.25185,-0.10005 -0.069,-0.0155 -0.18112,-0.0362 -0.1104,-0.0207 -0.20183,-0.0448 -0.25357,-0.0673 -0.36052,-0.19665 -0.10522,-0.1311 -0.10522,-0.32085 0,-0.11902 0.0483,-0.22425 0.05,-0.10522 0.15007,-0.18802 0.0966,-0.0811 0.24495,-0.12765 0.15007,-0.0483 0.33464,-0.0483 0.1725,0 0.34845,0.0431 0.17767,0.0414 0.29497,0.10178 v 0.34672 h -0.0173 q -0.1242,-0.0914 -0.30187,-0.15352 -0.17767,-0.0638 -0.34845,-0.0638 -0.17767,0 -0.30014,0.069 -0.12248,0.0673 -0.12248,0.20182 0,0.11903 0.0742,0.1794 0.0725,0.0604 0.2346,0.0983 0.0897,0.0207 0.20009,0.0414 0.11213,0.0207 0.1863,0.0379 0.22598,0.0517 0.34845,0.17767 0.12247,0.12765 0.12247,0.3381 z"
         id="path633242" />
      <path
         d="m 107.68459,127.97907 h -0.32257 v -0.20528 q -0.0431,0.0293 -0.1173,0.0828 -0.0725,0.0517 -0.14145,0.0828 -0.0811,0.0397 -0.1863,0.0656 -0.10522,0.0276 -0.24667,0.0276 -0.26047,0 -0.4416,-0.1725 -0.18112,-0.1725 -0.18112,-0.43987 0,-0.21907 0.0932,-0.35362 0.0949,-0.13628 0.2691,-0.2139 0.17594,-0.0776 0.42262,-0.10522 0.24667,-0.0276 0.52957,-0.0414 v -0.05 q 0,-0.1104 -0.0397,-0.18285 -0.0379,-0.0725 -0.1104,-0.11385 -0.069,-0.0397 -0.1656,-0.0535 -0.0966,-0.0138 -0.20182,-0.0138 -0.12765,0 -0.28462,0.0345 -0.15697,0.0328 -0.3243,0.0966 h -0.0173 v -0.32947 q 0.0949,-0.0259 0.27427,-0.0569 0.1794,-0.0311 0.35363,-0.0311 0.20354,0 0.35362,0.0345 0.1518,0.0328 0.2622,0.11385 0.10867,0.0793 0.16559,0.20527 0.0569,0.12593 0.0569,0.31223 z m -0.32257,-0.47438 v -0.53647 q -0.14835,0.009 -0.35017,0.0259 -0.2001,0.0172 -0.3174,0.05 -0.13973,0.0397 -0.22598,0.1242 -0.0862,0.0828 -0.0862,0.22943 0,0.16559 0.10004,0.25012 0.10005,0.0828 0.30533,0.0828 0.17077,0 0.31222,-0.0656 0.14145,-0.0673 0.2622,-0.16043 z"
         id="path633244" />
      <path
         d="m 109.92017,127.97907 h -0.3243 v -1.0971 q 0,-0.13282 -0.0155,-0.24839 -0.0155,-0.1173 -0.0569,-0.18285 -0.0431,-0.0724 -0.1242,-0.10695 -0.0811,-0.0362 -0.21044,-0.0362 -0.13283,0 -0.27773,0.0655 -0.14489,0.0656 -0.27772,0.16733 v 1.43864 h -0.3243 v -1.92681 h 0.3243 v 0.21389 q 0.1518,-0.12592 0.31395,-0.19664 0.16215,-0.0707 0.33292,-0.0707 0.31222,0 0.4761,0.18803 0.16387,0.18802 0.16387,0.54164 z"
         id="path633246" />
      <path
         d="m 112.10745,127.97907 h -0.3243 v -0.20183 q -0.13972,0.12075 -0.29152,0.18803 -0.1518,0.0673 -0.32947,0.0673 -0.345,0 -0.54855,-0.26565 -0.20182,-0.26565 -0.20182,-0.73657 0,-0.24494 0.069,-0.43642 0.0707,-0.19147 0.18975,-0.32602 0.1173,-0.1311 0.27255,-0.2001 0.15697,-0.069 0.32429,-0.069 0.1518,0 0.2691,0.0328 0.1173,0.0311 0.24667,0.0983 v -0.83489 h 0.3243 z m -0.3243,-0.47438 v -1.10571 q -0.13109,-0.0587 -0.23459,-0.0811 -0.1035,-0.0224 -0.22598,-0.0224 -0.27254,0 -0.42434,0.18975 -0.1518,0.18975 -0.1518,0.53819 0,0.34328 0.1173,0.52267 0.1173,0.17768 0.37604,0.17768 0.138,0 0.27945,-0.0604 0.14145,-0.0621 0.26392,-0.1587 z"
         id="path633248" />
      <path
         d="m 104.32001,130.82184 h -0.0172 q -0.0725,-0.0173 -0.14145,-0.0242 -0.0673,-0.009 -0.16043,-0.009 -0.15007,0 -0.28979,0.0673 -0.13973,0.0656 -0.2691,0.17077 v 1.36792 h -0.3243 v -1.92681 h 0.3243 v 0.28462 q 0.1932,-0.15525 0.33982,-0.21907 0.14835,-0.0656 0.30187,-0.0656 0.0845,0 0.12248,0.005 0.038,0.003 0.11385,0.0155 z"
         id="path633250" />
      <path
         d="m 106.23819,131.46526 h -1.41966 q 0,0.17767 0.0535,0.3105 0.0535,0.1311 0.14662,0.21562 0.0897,0.0828 0.21218,0.1242 0.1242,0.0414 0.27255,0.0414 0.19664,0 0.39502,-0.0776 0.2001,-0.0794 0.28462,-0.15525 h 0.0172 v 0.35362 q -0.16387,0.069 -0.33465,0.11557 -0.17077,0.0466 -0.35879,0.0466 -0.47955,0 -0.74865,-0.25875 -0.2691,-0.26047 -0.2691,-0.73829 0,-0.47265 0.25703,-0.75037 0.25874,-0.27773 0.67964,-0.27773 0.38985,0 0.6003,0.2277 0.21217,0.2277 0.21217,0.64687 z m -0.31567,-0.2484 q -0.002,-0.2553 -0.12938,-0.39502 -0.12592,-0.13972 -0.38467,-0.13972 -0.26047,0 -0.41572,0.15352 -0.15352,0.15352 -0.17422,0.38122 z"
         id="path633252" />
      <path
         d="m 108.42547,131.40834 q 0,0.23459 -0.0673,0.42952 -0.0673,0.1932 -0.18975,0.32774 -0.11385,0.12765 -0.2691,0.19838 -0.15352,0.069 -0.32602,0.069 -0.15008,0 -0.27255,-0.0328 -0.12075,-0.0328 -0.24667,-0.10177 v 0.80729 h -0.3243 v -2.6375 h 0.3243 v 0.20182 q 0.12937,-0.10867 0.28979,-0.18112 0.16215,-0.0742 0.345,-0.0742 0.34845,0 0.54165,0.26393 0.19492,0.26219 0.19492,0.72967 z m -0.33465,0.009 q 0,-0.34845 -0.11902,-0.52094 -0.11902,-0.1725 -0.3657,-0.1725 -0.13972,0 -0.28117,0.0604 -0.14145,0.0604 -0.27082,0.1587 v 1.09192 q 0.138,0.0621 0.23632,0.0845 0.10005,0.0224 0.22597,0.0224 0.27083,0 0.42262,-0.18284 0.1518,-0.18285 0.1518,-0.54165 z"
         id="path633254" />
      <path
         d="m 110.57308,131.43249 q 0,0.47092 -0.2415,0.74346 -0.2415,0.27255 -0.64687,0.27255 -0.40882,0 -0.65032,-0.27255 -0.23977,-0.27254 -0.23977,-0.74346 0,-0.47093 0.23977,-0.74347 0.2415,-0.27428 0.65032,-0.27428 0.40537,0 0.64687,0.27428 0.2415,0.27254 0.2415,0.74347 z m -0.33465,0 q 0,-0.37433 -0.14662,-0.55545 -0.14663,-0.18285 -0.4071,-0.18285 -0.26392,0 -0.41055,0.18285 -0.1449,0.18112 -0.1449,0.55545 0,0.36224 0.14663,0.55027 0.14662,0.18629 0.40882,0.18629 0.25875,0 0.40537,-0.18457 0.14835,-0.1863 0.14835,-0.55199 z"
         id="path633256" />
      <path
         d="m 112.27736,130.82184 h -0.0173 q -0.0725,-0.0173 -0.14145,-0.0242 -0.0673,-0.009 -0.16042,-0.009 -0.15007,0 -0.2898,0.0673 -0.13972,0.0656 -0.26909,0.17077 v 1.36792 h -0.3243 v -1.92681 h 0.3243 v 0.28462 q 0.19319,-0.15525 0.33982,-0.21907 0.14835,-0.0656 0.30187,-0.0656 0.0845,0 0.12247,0.005 0.0379,0.003 0.11385,0.0155 z"
         id="path633258" />
      <path
         d="m 113.58318,132.37778 q -0.0914,0.0241 -0.2001,0.0397 -0.10695,0.0155 -0.19147,0.0155 -0.29498,0 -0.4485,-0.1587 -0.15352,-0.1587 -0.15352,-0.50887 v -1.02464 h -0.21908 v -0.27255 h 0.21908 v -0.55372 h 0.32429 v 0.55372 h 0.6693 v 0.27255 h -0.6693 v 0.87801 q 0,0.1518 0.007,0.23805 0.007,0.0845 0.0483,0.1587 0.0379,0.069 0.1035,0.10177 0.0673,0.031 0.20355,0.031 0.0794,0 0.1656,-0.0224 0.0862,-0.0242 0.1242,-0.0397 h 0.0173 z"
         id="path633260" />
      <path
         d="m 115.35129,131.83958 q 0,0.26393 -0.21908,0.43297 -0.21734,0.16905 -0.59512,0.16905 -0.21389,0 -0.39329,-0.05 -0.17768,-0.0517 -0.29843,-0.11213 v -0.36397 h 0.0173 q 0.15353,0.11558 0.34155,0.18458 0.18802,0.0673 0.36052,0.0673 0.2139,0 0.33465,-0.069 0.12075,-0.069 0.12075,-0.21735 0,-0.11385 -0.0656,-0.1725 -0.0655,-0.0587 -0.25185,-0.10005 -0.069,-0.0155 -0.18112,-0.0362 -0.1104,-0.0207 -0.20182,-0.0449 -0.25358,-0.0673 -0.36053,-0.19665 -0.10522,-0.1311 -0.10522,-0.32085 0,-0.11902 0.0483,-0.22424 0.05,-0.10523 0.15007,-0.18803 0.0966,-0.0811 0.24495,-0.12765 0.15007,-0.0483 0.33465,-0.0483 0.1725,0 0.34844,0.0431 0.17768,0.0414 0.29498,0.10177 v 0.34673 h -0.0173 q -0.1242,-0.0914 -0.30187,-0.15353 -0.17768,-0.0638 -0.34845,-0.0638 -0.17768,0 -0.30015,0.069 -0.12247,0.0673 -0.12247,0.20182 0,0.11902 0.0742,0.1794 0.0724,0.0604 0.2346,0.0983 0.0897,0.0207 0.2001,0.0414 0.11212,0.0207 0.1863,0.0379 0.22597,0.0517 0.34844,0.17768 0.12248,0.12764 0.12248,0.33809 z"
         id="path633262" />
    </g>
    <g
       aria-label="Benchmark"
       id="text60939"
       style="font-size:3.53277px;line-height:1.25;stroke-width:0.220798"
       transform="matrix(1.0504642,0,0,1.0936868,-4.2513402,-110.70381)">
      <path
         d="m 29.565316,137.85013 q 0,0.18629 -0.0759,0.33292 -0.07417,0.14662 -0.205273,0.24322 -0.151799,0.11385 -0.334647,0.16215 -0.181124,0.0483 -0.460571,0.0483 h -1.121241 v -2.5685 h 0.997042 q 0.310497,0 0.453671,0.0207 0.144899,0.0207 0.286347,0.0914 0.146624,0.0742 0.217349,0.2001 0.07245,0.1242 0.07245,0.28462 0,0.1863 -0.09832,0.32947 -0.09832,0.14145 -0.277723,0.2208 v 0.0138 q 0.251848,0.05 0.398472,0.207 0.148348,0.15697 0.148348,0.414 z m -0.848692,-1.0557 q 0,-0.0638 -0.03278,-0.12764 -0.03105,-0.0638 -0.112124,-0.0949 -0.07245,-0.0276 -0.181124,-0.0293 -0.106949,-0.003 -0.301872,-0.003 h -0.0621 v 0.54337 h 0.103499 q 0.156973,0 0.267372,-0.005 0.110399,-0.005 0.174224,-0.0345 0.0897,-0.0397 0.117299,-0.10177 0.0276,-0.0638 0.0276,-0.14663 z m 0.162148,1.04535 q 0,-0.12248 -0.0483,-0.18803 -0.04658,-0.0673 -0.160424,-0.10005 -0.07762,-0.0224 -0.213898,-0.0242 -0.136274,-0.002 -0.284623,-0.002 H 28.02663 v 0.63997 h 0.0483 q 0.279448,0 0.400197,-0.002 0.120749,-0.002 0.222523,-0.0448 0.103499,-0.0431 0.141449,-0.11385 0.03967,-0.0725 0.03967,-0.16559 z"
         style="font-weight:bold;-inkscape-font-specification:'sans-serif Bold'"
         id="path633265" />
      <path
         d="m 31.931996,137.78285 h -1.421388 q 0.0138,0.2277 0.172499,0.34845 0.160424,0.12075 0.470921,0.12075 0.196648,0 0.381222,-0.0707 0.184573,-0.0707 0.291522,-0.1518 h 0.069 v 0.49852 q -0.210449,0.0845 -0.396747,0.12248 -0.186298,0.0379 -0.412271,0.0379 -0.583046,0 -0.893543,-0.2622 -0.310497,-0.2622 -0.310497,-0.74692 0,-0.47954 0.293247,-0.75899 0.294973,-0.28117 0.807293,-0.28117 0.472646,0 0.710694,0.23977 0.238048,0.23805 0.238048,0.68654 z m -0.617544,-0.36397 q -0.0052,-0.19492 -0.0966,-0.29325 -0.09142,-0.0983 -0.284622,-0.0983 -0.179399,0 -0.294973,0.0932 -0.115574,0.0931 -0.129374,0.29842 z"
         style="font-weight:bold;-inkscape-font-specification:'sans-serif Bold'"
         id="path633267" />
      <path
         d="m 34.315926,138.63672 h -0.624445 v -0.96082 q 0,-0.1173 -0.01208,-0.23287 -0.01208,-0.1173 -0.0414,-0.1725 -0.0345,-0.0638 -0.101774,-0.0932 -0.06555,-0.0293 -0.184573,-0.0293 -0.08452,0 -0.172499,0.0276 -0.08625,0.0276 -0.188023,0.088 v 1.37309 h -0.620995 v -1.93716 h 0.620995 v 0.2139 q 0.165599,-0.12938 0.317397,-0.19837 0.153524,-0.069 0.339822,-0.069 0.313948,0 0.489896,0.18284 0.177674,0.18285 0.177674,0.54682 z"
         style="font-weight:bold;-inkscape-font-specification:'sans-serif Bold'"
         id="path633269" />
      <path
         d="m 35.896013,138.68847 q -0.253573,0 -0.464021,-0.0604 -0.208723,-0.0604 -0.363972,-0.18629 -0.153524,-0.12593 -0.238048,-0.3174 -0.08452,-0.19148 -0.08452,-0.4485 0,-0.27082 0.0897,-0.46747 0.09142,-0.19665 0.253573,-0.32602 0.156973,-0.12248 0.362247,-0.1794 0.205273,-0.0569 0.426071,-0.0569 0.198373,0 0.365697,0.0431 0.167323,0.0431 0.312222,0.11212 v 0.52957 h -0.08797 q -0.03623,-0.031 -0.08797,-0.0724 -0.05003,-0.0414 -0.124199,-0.0811 -0.07072,-0.0379 -0.155249,-0.0621 -0.08452,-0.0259 -0.196648,-0.0259 -0.248398,0 -0.382947,0.1587 -0.132824,0.15697 -0.132824,0.42779 0,0.27945 0.136274,0.42435 0.137999,0.1449 0.389847,0.1449 0.117299,0 0.210448,-0.0259 0.09487,-0.0276 0.156974,-0.0638 0.05865,-0.0345 0.103499,-0.0725 0.04485,-0.0379 0.0828,-0.0742 h 0.08797 v 0.52957 q -0.146624,0.069 -0.307047,0.10868 -0.158699,0.0414 -0.351897,0.0414 z"
         style="font-weight:bold;-inkscape-font-specification:'sans-serif Bold'"
         id="path633271" />
      <path
         d="m 38.911287,138.63672 h -0.624444 v -0.96082 q 0,-0.1173 -0.01207,-0.23287 -0.01208,-0.1173 -0.0414,-0.1725 -0.0345,-0.0638 -0.101774,-0.0932 -0.06555,-0.0293 -0.184573,-0.0293 -0.08452,0 -0.172499,0.0276 -0.08625,0.0276 -0.188023,0.088 v 1.37309 h -0.620995 v -2.68408 h 0.620995 v 0.96082 q 0.165598,-0.12938 0.317397,-0.19837 0.153524,-0.069 0.339822,-0.069 0.313947,0 0.489896,0.18284 0.177673,0.18285 0.177673,0.54682 z"
         style="font-weight:bold;-inkscape-font-specification:'sans-serif Bold'"
         id="path633273" />
      <path
         d="m 41.376291,137.26363 v 1.37309 H 40.751846 V 137.669 q 0,-0.14145 -0.0069,-0.23977 -0.0069,-0.10005 -0.03795,-0.16215 -0.03105,-0.0621 -0.09487,-0.0897 -0.0621,-0.0293 -0.175949,-0.0293 -0.09142,0 -0.177673,0.038 -0.08625,0.0362 -0.155249,0.0776 v 1.37309 H 39.48226 v -1.93716 h 0.620995 v 0.2139 q 0.160424,-0.12593 0.307047,-0.19665 0.146624,-0.0707 0.324298,-0.0707 0.191473,0 0.338097,0.0862 0.146623,0.0845 0.229423,0.25013 0.186298,-0.15698 0.362247,-0.24668 0.175948,-0.0897 0.344997,-0.0897 0.313947,0 0.476096,0.18802 0.163873,0.18802 0.163873,0.54164 v 1.26097 H 42.024886 V 137.669 q 0,-0.14317 -0.0069,-0.2415 -0.0052,-0.0983 -0.03623,-0.16042 -0.02933,-0.0621 -0.09315,-0.0897 -0.06383,-0.0293 -0.179399,-0.0293 -0.07762,0 -0.151799,0.0276 -0.07417,0.0259 -0.181123,0.088 z"
         style="font-weight:bold;-inkscape-font-specification:'sans-serif Bold'"
         id="path633275" />
      <path
         d="m 44.39329,138.1313 v -0.40365 q -0.125924,0.0103 -0.272548,0.0293 -0.146623,0.0172 -0.222523,0.0414 -0.09315,0.0293 -0.143174,0.0862 -0.0483,0.0552 -0.0483,0.14662 0,0.0604 0.01035,0.0983 0.01035,0.0379 0.05175,0.0725 0.03968,0.0345 0.09488,0.0517 0.0552,0.0155 0.172498,0.0155 0.09315,0 0.188023,-0.0379 0.0966,-0.0379 0.169049,-0.10005 z m 0,0.30015 q -0.05002,0.0379 -0.124199,0.0914 -0.07417,0.0535 -0.139724,0.0845 -0.09142,0.0414 -0.189748,0.0604 -0.09832,0.0207 -0.215623,0.0207 -0.275998,0 -0.462296,-0.17078 -0.186299,-0.17077 -0.186299,-0.43642 0,-0.21217 0.09487,-0.34672 0.09488,-0.13455 0.269098,-0.21217 0.172499,-0.0776 0.427796,-0.1104 0.255298,-0.0328 0.529571,-0.0483 v -0.0103 q 0,-0.16042 -0.131099,-0.2208 -0.131099,-0.0621 -0.386397,-0.0621 -0.153523,0 -0.327747,0.0552 -0.174223,0.0535 -0.250123,0.0828 h -0.05692 v -0.46747 q 0.09832,-0.0259 0.319122,-0.0604 0.222523,-0.0362 0.445046,-0.0362 0.529571,0 0.764169,0.16387 0.236323,0.16215 0.236323,0.5106 v 1.31789 h -0.61582 z"
         style="font-weight:bold;-inkscape-font-specification:'sans-serif Bold'"
         id="path633277" />
      <path
         d="m 46.984218,137.29123 h -0.0552 q -0.03967,-0.0138 -0.127649,-0.0207 -0.08797,-0.007 -0.146624,-0.007 -0.132824,0 -0.234598,0.0172 -0.101774,0.0172 -0.219073,0.0587 v 1.29719 H 45.58008 v -1.93716 h 0.620995 v 0.28462 q 0.205273,-0.17595 0.357072,-0.23287 0.151799,-0.0587 0.279448,-0.0587 0.03277,0 0.07417,0.002 0.0414,0.002 0.07245,0.005 z"
         style="font-weight:bold;-inkscape-font-specification:'sans-serif Bold'"
         id="path633279" />
      <path
         d="m 49.392298,138.63672 h -0.722769 l -0.543371,-0.84352 -0.169048,0.20527 v 0.63825 h -0.620995 v -2.68408 h 0.620995 v 1.60251 l 0.669294,-0.85559 h 0.715869 l -0.696894,0.83489 z"
         style="font-weight:bold;-inkscape-font-specification:'sans-serif Bold'"
         id="path633281" />
    </g>
    <g
       id="g258108"
       transform="matrix(0.73155716,0,0,0.76165795,-12.590265,-82.716979)">
      <path
         id="circle6"
         style="fill:#006798;stroke-width:0.0373326"
         d="m 31.521845,123.12807 a 4.299458,4.2871099 0 0 1 -4.299458,4.28711 4.299458,4.2871099 0 0 1 -4.299458,-4.28711 4.299458,4.2871099 0 0 1 4.299458,-4.28711 4.299458,4.2871099 0 0 1 4.299458,4.28711 z" />
      <path
         d="m 20,132.5 a 7.6642512,7.6422402 0 0 1 14.444788,0"
         stroke-linecap="butt"
         id="path8"
         style="fill:#006798;fill-opacity:1;stroke:none;stroke-width:0;stroke-miterlimit:4;stroke-dasharray:none;stroke-opacity:1" />
    </g>
    <path
       style="fill:none;stroke:#000000;stroke-width:0.505384;stroke-linecap:butt;stroke-linejoin:miter;stroke-miterlimit:4;stroke-dasharray:none;stroke-opacity:1;marker-end:url(#Arrow2Mend)"
       d="M 11.777333,10.442519 H 60.868441 V 20.893037"
       id="path258005"
       sodipodi:nodetypes="ccc" />
    <path
       style="fill:none;stroke:#000000;stroke-width:0.505384;stroke-linecap:butt;stroke-linejoin:miter;stroke-miterlimit:4;stroke-dasharray:none;stroke-opacity:1;marker-end:url(#Arrow2Mend)"
       d="M 7.3942068,18.976415 V 29.928731 H 22.01026"
       id="path291540"
       sodipodi:nodetypes="ccc" />
    <path
       style="fill:#1b1b1b;fill-opacity:1;stroke:none;stroke-width:0.1975px;stroke-linecap:square;stroke-linejoin:miter;stroke-opacity:1"
       d="m 45.579962,28.656022 v 1.904173 h 3.657783 v 0.761633 l 1.828893,-2.285014 v -0.761621 l -1.828893,-2.284939 v 0.761633 h -3.657783"
       id="path311527"
       sodipodi:nodetypes="ccccccccc" />
    <g
       id="g309831"
       transform="matrix(1.089189,0,0,1.134005,-51.157047,-131.37618)">
      <path
         id="rect5884"
         style="fill:#fc5a20;stroke-width:0.264583"
         d="m 72.099983,135 h 15 c 1.385,0 2.5,1.115 2.5,2.5 v 7.5 c 0,1.385 -1.115,2.5 -2.5,2.5 h -15 c -1.385,0 -2.5,-1.115 -2.5,-2.5 v -7.5 c 0,-1.385 1.115,-2.5 2.5,-2.5 z" />
      <g
         aria-label="Signal Bank"
         transform="translate(11.786078,3.719745)"
         id="text5888"
         style="font-size:2.83931px;line-height:1.25;text-align:center;text-anchor:middle;white-space:pre;inline-size:34.5067;stroke-width:0.264583">
        <path
           d="m 60.252983,137.66209 q 0,0.305 -0.259253,0.49632 -0.257867,0.18994 -0.701509,0.18994 -0.256481,0 -0.447801,-0.0444 -0.189935,-0.0457 -0.356301,-0.11507 v -0.49494 h 0.05823 q 0.16498,0.13171 0.368778,0.20241 0.205185,0.0707 0.393732,0.0707 0.04852,0 0.127548,-0.008 0.07902,-0.008 0.128933,-0.0277 0.061,-0.0249 0.09982,-0.0624 0.04021,-0.0374 0.04021,-0.11091 0,-0.0679 -0.05823,-0.11646 -0.05684,-0.0499 -0.167753,-0.0762 -0.116456,-0.0277 -0.246776,-0.0513 -0.128933,-0.025 -0.242616,-0.0624 -0.26064,-0.0846 -0.37571,-0.22876 -0.113683,-0.14557 -0.113683,-0.36046 0,-0.28836 0.257867,-0.46998 0.259253,-0.183 0.665463,-0.183 0.203798,0 0.402051,0.0402 0.199639,0.0388 0.345209,0.0984 v 0.47553 h -0.05684 q -0.124774,-0.0998 -0.30639,-0.16637 -0.18023,-0.0679 -0.368778,-0.0679 -0.06655,0 -0.133092,0.01 -0.06516,0.008 -0.126161,0.0333 -0.05407,0.0208 -0.09289,0.0638 -0.03882,0.0416 -0.03882,0.0957 0,0.0818 0.06239,0.12616 0.06239,0.043 0.235685,0.079 0.113683,0.0236 0.217662,0.0457 0.105365,0.0222 0.22598,0.061 0.237071,0.0776 0.349368,0.21212 0.113683,0.13309 0.113683,0.3466 z"
           style="font-weight:bold;-inkscape-font-specification:'sans-serif Bold';fill:#ffffff"
           id="path633286" />
        <path
           d="m 61.088972,138.31091 h -0.499098 v -1.5569 h 0.499098 z m 0.01386,-1.77872 H 60.57601 v -0.37849 h 0.526825 z"
           style="font-weight:bold;-inkscape-font-specification:'sans-serif Bold';fill:#ffffff"
           id="path633288" />
        <path
           d="m 63.07427,138.13207 q 0,0.21905 -0.06239,0.36878 -0.06239,0.14973 -0.174684,0.2343 -0.112297,0.0859 -0.271731,0.12338 -0.158047,0.0388 -0.357686,0.0388 -0.162207,0 -0.320254,-0.0194 -0.156662,-0.0194 -0.271731,-0.0471 v -0.38958 h 0.061 q 0.0915,0.0361 0.223207,0.0652 0.131706,0.0305 0.235685,0.0305 0.138638,0 0.224594,-0.0263 0.08734,-0.0249 0.133092,-0.0721 0.04298,-0.0444 0.06239,-0.11368 0.01941,-0.0693 0.01941,-0.16637 v -0.0291 q -0.09011,0.0735 -0.199639,0.11645 -0.109524,0.043 -0.244003,0.043 -0.327186,0 -0.504643,-0.19687 -0.177457,-0.19686 -0.177457,-0.59891 0,-0.19271 0.05407,-0.33273 0.05407,-0.14003 0.152502,-0.24401 0.0915,-0.097 0.224594,-0.15111 0.134479,-0.0541 0.274503,-0.0541 0.126161,0 0.228753,0.0305 0.103979,0.0291 0.188548,0.0818 l 0.01802,-0.0693 h 0.483847 z m -0.499097,-0.31194 v -0.70566 q -0.04298,-0.018 -0.105365,-0.0277 -0.06239,-0.0111 -0.112297,-0.0111 -0.196866,0 -0.295299,0.11368 -0.09843,0.1123 -0.09843,0.31471 0,0.22459 0.08318,0.31332 0.08457,0.0887 0.249548,0.0887 0.07487,0 0.146957,-0.0236 0.07209,-0.0236 0.131706,-0.0624 z"
           style="font-weight:bold;-inkscape-font-specification:'sans-serif Bold';fill:#ffffff"
           id="path633290" />
        <path
           d="m 65.109479,138.31091 h -0.50187 v -0.77221 q 0,-0.0943 -0.0097,-0.18716 -0.0097,-0.0943 -0.03327,-0.13864 -0.02773,-0.0513 -0.0818,-0.0749 -0.05268,-0.0236 -0.148343,-0.0236 -0.06793,0 -0.138638,0.0222 -0.06932,0.0222 -0.151115,0.0707 v 1.10356 H 63.54564 v -1.5569 h 0.499098 v 0.17191 q 0.133092,-0.10398 0.255094,-0.15944 0.123388,-0.0555 0.273117,-0.0555 0.252322,0 0.393732,0.14695 0.142798,0.14696 0.142798,0.43949 z"
           style="font-weight:bold;-inkscape-font-specification:'sans-serif Bold';fill:#ffffff"
           id="path633292" />
        <path
           d="m 66.511111,137.9047 v -0.32441 q -0.101206,0.008 -0.219048,0.0236 -0.117843,0.0139 -0.178843,0.0333 -0.07487,0.0236 -0.11507,0.0693 -0.03882,0.0444 -0.03882,0.11784 0,0.0485 0.0083,0.079 0.0083,0.0305 0.04159,0.0582 0.03189,0.0277 0.07625,0.0416 0.04436,0.0125 0.138638,0.0125 0.07487,0 0.151116,-0.0305 0.07764,-0.0305 0.135865,-0.0804 z m 0,0.24123 q -0.04021,0.0305 -0.09982,0.0735 -0.05962,0.043 -0.112297,0.0679 -0.07348,0.0333 -0.152502,0.0485 -0.07902,0.0166 -0.173298,0.0166 -0.221821,0 -0.37155,-0.13725 -0.14973,-0.13725 -0.14973,-0.35075 0,-0.17053 0.07625,-0.27866 0.07625,-0.10814 0.216276,-0.17053 0.138638,-0.0624 0.343823,-0.0887 0.205184,-0.0263 0.425619,-0.0388 v -0.008 q 0,-0.12894 -0.105365,-0.17746 -0.105365,-0.0499 -0.31055,-0.0499 -0.123388,0 -0.263412,0.0444 -0.140025,0.043 -0.201026,0.0666 h -0.04575 v -0.37571 q 0.07902,-0.0208 0.25648,-0.0485 0.178844,-0.0291 0.357687,-0.0291 0.425619,0 0.614167,0.13171 0.189934,0.13032 0.189934,0.41037 v 1.05919 h -0.494938 z"
           style="font-weight:bold;-inkscape-font-specification:'sans-serif Bold';fill:#ffffff"
           id="path633294" />
        <path
           d="m 67.964039,138.31091 h -0.499097 v -2.15721 h 0.499097 z"
           style="font-weight:bold;-inkscape-font-specification:'sans-serif Bold';fill:#ffffff"
           id="path633296" />
        <path
           d="m 71.199854,137.67872 q 0,0.14973 -0.061,0.26757 -0.05961,0.11785 -0.164979,0.19548 -0.122002,0.0915 -0.268958,0.13032 -0.145571,0.0388 -0.370164,0.0388 h -0.901149 v -2.06432 h 0.801329 q 0.249549,0 0.364619,0.0166 0.116456,0.0166 0.230139,0.0735 0.117842,0.0596 0.174684,0.16082 0.05823,0.0998 0.05823,0.22875 0,0.14973 -0.07902,0.2648 -0.07902,0.11368 -0.223207,0.17745 v 0.0111 q 0.202412,0.0402 0.320254,0.16636 0.119229,0.12616 0.119229,0.33273 z m -0.6821,-0.84846 q 0,-0.0513 -0.02634,-0.10259 -0.02495,-0.0513 -0.09011,-0.0763 -0.05823,-0.0222 -0.14557,-0.0236 -0.08596,-0.003 -0.242617,-0.003 h -0.04991 v 0.43671 h 0.08318 q 0.126161,0 0.214889,-0.004 0.08873,-0.004 0.140025,-0.0277 0.07209,-0.0319 0.09427,-0.0818 0.02218,-0.0513 0.02218,-0.11784 z m 0.13032,0.84014 q 0,-0.0984 -0.03882,-0.15111 -0.03743,-0.0541 -0.128933,-0.0804 -0.06239,-0.018 -0.171912,-0.0194 -0.109524,-0.001 -0.228753,-0.001 H 69.9632 v 0.51435 h 0.03882 q 0.224594,0 0.321641,-0.001 0.09705,-0.001 0.178843,-0.036 0.08318,-0.0347 0.113683,-0.0915 0.03189,-0.0582 0.03189,-0.1331 z"
           style="font-weight:bold;-inkscape-font-specification:'sans-serif Bold';fill:#ffffff"
           id="path633298" />
        <path
           d="m 72.511371,137.9047 v -0.32441 q -0.101205,0.008 -0.219048,0.0236 -0.117842,0.0139 -0.178843,0.0333 -0.07487,0.0236 -0.11507,0.0693 -0.03882,0.0444 -0.03882,0.11784 0,0.0485 0.0083,0.079 0.0083,0.0305 0.04159,0.0582 0.03189,0.0277 0.07625,0.0416 0.04436,0.0125 0.138638,0.0125 0.07487,0 0.151116,-0.0305 0.07764,-0.0305 0.135865,-0.0804 z m 0,0.24123 q -0.04021,0.0305 -0.09982,0.0735 -0.05961,0.043 -0.112297,0.0679 -0.07348,0.0333 -0.152502,0.0485 -0.07902,0.0166 -0.173298,0.0166 -0.221821,0 -0.37155,-0.13725 -0.149729,-0.13725 -0.149729,-0.35075 0,-0.17053 0.07625,-0.27866 0.07625,-0.10814 0.216275,-0.17053 0.138638,-0.0624 0.343823,-0.0887 0.205184,-0.0263 0.425619,-0.0388 v -0.008 q 0,-0.12894 -0.105365,-0.17746 -0.105365,-0.0499 -0.310549,-0.0499 -0.123388,0 -0.263413,0.0444 -0.140024,0.043 -0.201025,0.0666 h -0.04575 v -0.37571 q 0.07902,-0.0208 0.256481,-0.0485 0.178843,-0.0291 0.357686,-0.0291 0.42562,0 0.614167,0.13171 0.189935,0.13032 0.189935,0.41037 v 1.05919 H 72.51137 Z"
           style="font-weight:bold;-inkscape-font-specification:'sans-serif Bold';fill:#ffffff"
           id="path633300" />
        <path
           d="M 75.029041,138.31091 H 74.52717 v -0.77221 q 0,-0.0943 -0.0097,-0.18716 -0.0097,-0.0943 -0.03327,-0.13864 -0.02773,-0.0513 -0.0818,-0.0749 -0.05268,-0.0236 -0.148343,-0.0236 -0.06793,0 -0.138638,0.0222 -0.06932,0.0222 -0.151116,0.0707 v 1.10356 h -0.499097 v -1.5569 h 0.499097 v 0.17191 q 0.133093,-0.10398 0.255095,-0.15944 0.123388,-0.0555 0.273117,-0.0555 0.252321,0 0.393732,0.14695 0.142798,0.14696 0.142798,0.43949 z"
           style="font-weight:bold;-inkscape-font-specification:'sans-serif Bold';fill:#ffffff"
           id="path633302" />
        <path
           d="m 77.140501,138.31091 h -0.580894 l -0.43671,-0.67794 -0.135866,0.16498 v 0.51296 h -0.499097 v -2.15721 h 0.499097 v 1.28795 l 0.537916,-0.68764 h 0.575349 l -0.560098,0.67101 z"
           style="font-weight:bold;-inkscape-font-specification:'sans-serif Bold';fill:#ffffff"
           id="path633304" />
      </g>
    </g>
    <path
       style="fill:#1b1b1b;fill-opacity:1;stroke:none;stroke-width:0.1975px;stroke-linecap:square;stroke-linejoin:miter;stroke-opacity:1"
       d="m 71.903932,28.656022 v 1.904173 h 3.657792 v 0.761633 l 1.828926,-2.285014 v -0.761621 l -1.828926,-2.284939 v 0.761633 h -3.657792"
       id="path313844"
       sodipodi:nodetypes="ccccccccc" />
    <g
       id="g309836"
       transform="matrix(1.089189,0,0,1.134005,-53.074958,-131.37618)">
      <path
         id="rect303998"
         style="fill:#8fbb20;stroke-width:0.264583"
         d="m 98.029175,135 h 14.999995 c 1.385,0 2.5,1.115 2.5,2.5 v 7.5 c 0,1.385 -1.115,2.5 -2.5,2.5 H 98.029175 c -1.385,0 -2.5,-1.115 -2.5,-2.5 v -7.5 c 0,-1.385 1.115,-2.5 2.5,-2.5 z" />
      <g
         aria-label="Methods"
         transform="translate(37.698733,3.9870842)"
         id="text304002"
         style="font-size:2.83931px;line-height:1.25;text-align:center;text-anchor:middle;white-space:pre;inline-size:34.5067;stroke-width:0.264583">
        <path
           d="m 63.418786,138.31091 h -0.529598 v -1.38222 l -0.382641,0.89699 h -0.367391 l -0.382641,-0.89699 v 1.38222 h -0.501871 v -2.06432 h 0.618327 l 0.464438,1.03563 0.463051,-1.03563 h 0.618326 z"
           style="font-weight:bold;-inkscape-font-specification:'sans-serif Bold';fill:#ffffff"
           id="path633308" />
        <path
           d="m 65.451222,137.62465 h -1.142379 q 0.01109,0.18301 0.138639,0.28005 0.128933,0.097 0.378482,0.097 0.158047,0 0.30639,-0.0568 0.148343,-0.0568 0.234299,-0.122 h 0.05545 v 0.40066 q -0.169139,0.0679 -0.318868,0.0984 -0.149729,0.0305 -0.331345,0.0305 -0.468597,0 -0.718146,-0.21073 -0.249549,-0.21073 -0.249549,-0.6003 0,-0.38541 0.235685,-0.61001 0.237072,-0.22598 0.648827,-0.22598 0.379869,0 0.571189,0.19271 0.191321,0.19132 0.191321,0.55178 z m -0.496325,-0.29252 q -0.0042,-0.15666 -0.07764,-0.23569 -0.07348,-0.079 -0.228753,-0.079 -0.144184,0 -0.237071,0.0749 -0.09289,0.0749 -0.103979,0.23985 z"
           style="font-weight:bold;-inkscape-font-specification:'sans-serif Bold';fill:#ffffff"
           id="path633310" />
        <path
           d="m 66.798785,138.29705 q -0.08041,0.0208 -0.170525,0.0319 -0.09011,0.0125 -0.220434,0.0125 -0.29114,0 -0.433938,-0.11784 -0.141411,-0.11784 -0.141411,-0.40344 v -0.72785 h -0.205184 v -0.33827 h 0.205184 v -0.44503 h 0.499098 v 0.44503 h 0.46721 v 0.33827 h -0.46721 v 0.55178 q 0,0.0818 0.0014,0.1428 0.0014,0.061 0.02218,0.10952 0.01941,0.0485 0.06793,0.0776 0.04991,0.0277 0.144184,0.0277 0.03882,0 0.101205,-0.0166 0.06377,-0.0166 0.08873,-0.0305 h 0.04159 z"
           style="font-weight:bold;-inkscape-font-specification:'sans-serif Bold';fill:#ffffff"
           id="path633312" />
        <path
           d="m 68.660696,138.31091 h -0.50187 v -0.77221 q 0,-0.0943 -0.0097,-0.18716 -0.0097,-0.0943 -0.03327,-0.13864 -0.02773,-0.0513 -0.0818,-0.0749 -0.05268,-0.0236 -0.148343,-0.0236 -0.06793,0 -0.138638,0.0222 -0.06932,0.0222 -0.151116,0.0707 v 1.10356 h -0.499098 v -2.15721 h 0.499098 v 0.77222 q 0.133093,-0.10398 0.255094,-0.15944 0.123388,-0.0555 0.273117,-0.0555 0.252322,0 0.393733,0.14695 0.142797,0.14696 0.142797,0.43949 z"
           style="font-weight:bold;-inkscape-font-specification:'sans-serif Bold';fill:#ffffff"
           id="path633314" />
        <path
           d="m 70.711155,137.53315 q 0,0.38403 -0.224594,0.60585 -0.223208,0.22044 -0.628031,0.22044 -0.404824,0 -0.629418,-0.22044 -0.223207,-0.22182 -0.223207,-0.60585 0,-0.3868 0.224594,-0.60723 0.22598,-0.22044 0.628031,-0.22044 0.407596,0 0.629417,0.22182 0.223208,0.22183 0.223208,0.60585 z m -0.614168,0.37849 q 0.04852,-0.0596 0.07209,-0.1428 0.02496,-0.0846 0.02496,-0.23291 0,-0.13726 -0.02496,-0.23014 -0.02495,-0.0929 -0.06932,-0.14835 -0.04436,-0.0568 -0.106751,-0.0804 -0.06239,-0.0236 -0.134479,-0.0236 -0.07209,0 -0.128934,0.0194 -0.05545,0.0194 -0.106751,0.0776 -0.04575,0.0541 -0.07348,0.14834 -0.02634,0.0943 -0.02634,0.23708 0,0.12754 0.02357,0.22182 0.02357,0.0929 0.06932,0.14973 0.04436,0.0541 0.105365,0.079 0.06239,0.0249 0.141411,0.0249 0.06793,0 0.128933,-0.0222 0.06239,-0.0236 0.105365,-0.0776 z"
           style="font-weight:bold;-inkscape-font-specification:'sans-serif Bold';fill:#ffffff"
           id="path633316" />
        <path
           d="m 72.58277,138.31091 h -0.499097 v -0.1622 q -0.128934,0.10536 -0.241231,0.15527 -0.112297,0.0499 -0.259253,0.0499 -0.284208,0 -0.454733,-0.21905 -0.170525,-0.21905 -0.170525,-0.5906 0,-0.19825 0.05684,-0.35075 0.05823,-0.15389 0.158048,-0.26341 0.09427,-0.10398 0.228753,-0.16082 0.134479,-0.0582 0.268958,-0.0582 0.140025,0 0.228753,0.0305 0.09012,0.0291 0.184389,0.0749 v -0.66269 h 0.499097 z m -0.499097,-0.42978 v -0.76389 q -0.05268,-0.0222 -0.110911,-0.0319 -0.05823,-0.01 -0.106751,-0.01 -0.196866,0 -0.295299,0.12338 -0.09843,0.12201 -0.09843,0.33967 0,0.22875 0.07902,0.33273 0.07902,0.10259 0.253708,0.10259 0.06793,0 0.144184,-0.0249 0.07625,-0.0263 0.134479,-0.0679 z"
           style="font-weight:bold;-inkscape-font-specification:'sans-serif Bold';fill:#ffffff"
           id="path633318" />
        <path
           d="m 74.407248,137.81736 q 0,0.24123 -0.216275,0.38957 -0.216276,0.14696 -0.591985,0.14696 -0.207958,0 -0.377096,-0.0388 -0.169139,-0.0388 -0.271731,-0.0859 v -0.41037 h 0.04575 q 0.03743,0.0263 0.08596,0.0582 0.04991,0.0305 0.140025,0.0665 0.07764,0.0319 0.17607,0.0555 0.09843,0.0222 0.21073,0.0222 0.146957,0 0.217662,-0.0319 0.07071,-0.0333 0.07071,-0.097 0,-0.0569 -0.04159,-0.0818 -0.04159,-0.0263 -0.158047,-0.0499 -0.05546,-0.0125 -0.151116,-0.0263 -0.09427,-0.0153 -0.171911,-0.0361 -0.212117,-0.0554 -0.314709,-0.17191 -0.102592,-0.11784 -0.102592,-0.29253 0,-0.22459 0.212116,-0.37293 0.213503,-0.14973 0.582281,-0.14973 0.174684,0 0.334118,0.036 0.16082,0.0347 0.250935,0.0749 v 0.39373 h -0.04298 q -0.110911,-0.0762 -0.253708,-0.12339 -0.141411,-0.0485 -0.286981,-0.0485 -0.120615,0 -0.203798,0.0333 -0.0818,0.0333 -0.0818,0.0943 0,0.0555 0.03743,0.0846 0.03743,0.0291 0.17607,0.0582 0.07625,0.0153 0.163593,0.0305 0.08873,0.0139 0.177457,0.036 0.196866,0.0513 0.29114,0.16221 0.09427,0.10952 0.09427,0.2745 z"
           style="font-weight:bold;-inkscape-font-specification:'sans-serif Bold';fill:#ffffff"
           id="path633320" />
      </g>
    </g>
    <path
       id="rect306320"
       style="fill:#7f89dc;stroke-width:0.29405"
       d="m 80.021223,21.714551 h 16.337829 c 1.50853,0 2.72297,1.264413 2.72297,2.835023 v 8.505045 c 0,1.57061 -1.21444,2.834998 -2.72297,2.834998 H 80.021223 c -1.508531,0 -2.722975,-1.264388 -2.722975,-2.834998 v -8.505045 c 0,-1.57061 1.214444,-2.835023 2.722975,-2.835023 z" />
    <g
       aria-label="Results Interpreter"
       transform="matrix(1.305178,0,0,1.3588811,0.00678619,-160.3552)"
       id="text306324"
       style="font-size:2.36944px;line-height:1.25;text-align:center;text-anchor:middle;white-space:pre;inline-size:34.5067;stroke-width:0.264583">
      <path
         d="m 64.025152,137.11578 q 0,-0.0648 -0.02661,-0.11107 -0.02661,-0.0463 -0.0914,-0.0729 -0.04512,-0.0185 -0.105283,-0.022 -0.06016,-0.005 -0.139991,-0.005 h -0.160817 v 0.46394 h 0.136521 q 0.106439,0 0.17817,-0.0104 0.07173,-0.0104 0.120324,-0.0474 0.04628,-0.0359 0.0671,-0.0787 0.02198,-0.044 0.02198,-0.11685 z m 0.693015,1.19513 h -0.542611 l -0.469723,-0.63169 h -0.204781 v 0.63169 h -0.441956 v -1.7227 h 0.745078 q 0.152718,0 0.262628,0.0173 0.109911,0.0174 0.205938,0.0752 0.09718,0.0578 0.153875,0.1504 0.05785,0.0914 0.05785,0.23023 0,0.1909 -0.08908,0.31122 -0.08793,0.12033 -0.252216,0.20016 z"
         style="font-weight:bold;-inkscape-font-specification:'sans-serif Bold';fill:#ffffff"
         id="path633324" />
      <path
         d="m 66.168986,137.73822 h -0.953329 q 0.0093,0.15272 0.115695,0.23371 0.107597,0.081 0.315848,0.081 0.131893,0 0.255687,-0.0474 0.123794,-0.0474 0.195525,-0.10181 h 0.04628 v 0.33436 q -0.141148,0.0567 -0.266099,0.0821 -0.124951,0.0255 -0.276512,0.0255 -0.39105,0 -0.599302,-0.17586 -0.208251,-0.17585 -0.208251,-0.50096 0,-0.32163 0.196682,-0.50906 0.197839,-0.18858 0.541454,-0.18858 0.317005,0 0.476665,0.16082 0.159659,0.15966 0.159659,0.46047 z m -0.414189,-0.24412 q -0.0035,-0.13073 -0.06479,-0.19668 -0.06132,-0.0659 -0.190898,-0.0659 -0.120323,0 -0.197839,0.0625 -0.07752,0.0625 -0.08677,0.20015 z"
         style="font-weight:bold;-inkscape-font-specification:'sans-serif Bold';fill:#ffffff"
         id="path633326" />
      <path
         d="m 67.592038,137.89904 q 0,0.20131 -0.180484,0.3251 -0.180485,0.12264 -0.494019,0.12264 -0.173543,0 -0.314691,-0.0324 -0.141149,-0.0324 -0.226763,-0.0717 v -0.34246 h 0.03818 q 0.03124,0.022 0.07173,0.0486 0.04165,0.0255 0.116853,0.0555 0.06479,0.0266 0.146933,0.0463 0.08214,0.0185 0.175856,0.0185 0.122637,0 0.181642,-0.0266 0.059,-0.0278 0.059,-0.081 0,-0.0474 -0.03471,-0.0683 -0.03471,-0.022 -0.131893,-0.0417 -0.04628,-0.0104 -0.126107,-0.022 -0.07867,-0.0127 -0.143463,-0.0301 -0.177013,-0.0463 -0.262628,-0.14346 -0.08561,-0.0983 -0.08561,-0.24412 0,-0.18743 0.177014,-0.31122 0.178171,-0.12495 0.485921,-0.12495 0.145776,0 0.278825,0.0301 0.134207,0.0289 0.209409,0.0625 v 0.32857 h -0.03587 q -0.09256,-0.0636 -0.211722,-0.10297 -0.118009,-0.0405 -0.239489,-0.0405 -0.100655,0 -0.170073,0.0278 -0.06826,0.0278 -0.06826,0.0787 0,0.0463 0.03124,0.0706 0.03124,0.0243 0.146933,0.0486 0.06363,0.0127 0.13652,0.0255 0.07404,0.0116 0.14809,0.0301 0.164288,0.0428 0.242961,0.13536 0.07867,0.0914 0.07867,0.22908 z"
         style="font-weight:bold;-inkscape-font-specification:'sans-serif Bold';fill:#ffffff"
         id="path633328" />
      <path
         d="m 69.163181,138.31091 h -0.416503 v -0.14346 q -0.115695,0.0879 -0.211723,0.13421 -0.09603,0.0451 -0.229076,0.0451 -0.215194,0 -0.332046,-0.1238 -0.115695,-0.12379 -0.115695,-0.36559 v -0.84574 h 0.418817 v 0.64443 q 0,0.0983 0.0058,0.16428 0.0069,0.0648 0.03008,0.1076 0.02198,0.0428 0.06595,0.0625 0.04512,0.0197 0.124951,0.0197 0.05322,0 0.118009,-0.0197 0.06479,-0.0197 0.124951,-0.0579 v -0.92094 h 0.416503 z"
         style="font-weight:bold;-inkscape-font-specification:'sans-serif Bold';fill:#ffffff"
         id="path633330" />
      <path
         d="m 69.973048,138.31091 h -0.416503 v -1.80022 h 0.416503 z"
         style="font-weight:bold;-inkscape-font-specification:'sans-serif Bold';fill:#ffffff"
         id="path633332" />
      <path
         d="m 71.197105,138.29934 q -0.0671,0.0174 -0.142306,0.0266 -0.0752,0.0104 -0.183955,0.0104 -0.24296,0 -0.362126,-0.0983 -0.11801,-0.0984 -0.11801,-0.33668 v -0.6074 h -0.171229 v -0.2823 h 0.171229 v -0.37138 h 0.416503 v 0.37138 h 0.389894 v 0.2823 h -0.389894 v 0.46047 q 0,0.0683 0.0012,0.11916 0.0012,0.0509 0.01851,0.0914 0.0162,0.0405 0.05669,0.0648 0.04165,0.0231 0.120324,0.0231 0.03239,0 0.08446,-0.0139 0.05322,-0.0139 0.07404,-0.0255 h 0.03471 z"
         style="font-weight:bold;-inkscape-font-specification:'sans-serif Bold';fill:#ffffff"
         id="path633334" />
      <path
         d="m 72.575035,137.89904 q 0,0.20131 -0.180484,0.3251 -0.180485,0.12264 -0.494019,0.12264 -0.173543,0 -0.314692,-0.0324 -0.141148,-0.0324 -0.226762,-0.0717 v -0.34246 h 0.03818 q 0.03124,0.022 0.07173,0.0486 0.04165,0.0255 0.116852,0.0555 0.06479,0.0266 0.146933,0.0463 0.08214,0.0185 0.175857,0.0185 0.122637,0 0.181642,-0.0266 0.059,-0.0278 0.059,-0.081 0,-0.0474 -0.03471,-0.0683 -0.03471,-0.022 -0.131893,-0.0417 -0.04628,-0.0104 -0.126108,-0.022 -0.07867,-0.0127 -0.143462,-0.0301 -0.177014,-0.0463 -0.262628,-0.14346 -0.08562,-0.0983 -0.08562,-0.24412 0,-0.18743 0.177014,-0.31122 0.178171,-0.12495 0.485921,-0.12495 0.145776,0 0.278825,0.0301 0.134207,0.0289 0.209409,0.0625 v 0.32857 h -0.03587 q -0.09256,-0.0636 -0.211722,-0.10297 -0.118009,-0.0405 -0.239489,-0.0405 -0.100655,0 -0.170073,0.0278 -0.06826,0.0278 -0.06826,0.0787 0,0.0463 0.03124,0.0706 0.03124,0.0243 0.146933,0.0486 0.06363,0.0127 0.13652,0.0255 0.07404,0.0116 0.14809,0.0301 0.164288,0.0428 0.242961,0.13536 0.07867,0.0914 0.07867,0.22908 z"
         style="font-weight:bold;-inkscape-font-specification:'sans-serif Bold';fill:#ffffff"
         id="path633336" />
      <path
         d="m 61.372837,141.27272 h -1.008863 v -0.30544 h 0.282296 v -1.11183 h -0.282296 v -0.30543 h 1.008863 v 0.30543 H 61.09054 v 1.11183 h 0.282297 z"
         style="font-weight:bold;-inkscape-font-specification:'sans-serif Bold';fill:#ffffff"
         id="path633338" />
      <path
         d="M 63.016867,141.27272 H 62.59805 v -0.64442 q 0,-0.0787 -0.0081,-0.15619 -0.0081,-0.0787 -0.02777,-0.1157 -0.02314,-0.0428 -0.06826,-0.0625 -0.04396,-0.0197 -0.123794,-0.0197 -0.05669,0 -0.115695,0.0185 -0.05785,0.0185 -0.126108,0.059 v 0.92094 H 61.71182 v -1.29926 h 0.416503 v 0.14346 q 0.111068,-0.0868 0.21288,-0.13305 0.102968,-0.0463 0.227919,-0.0463 0.210566,0 0.328575,0.12263 0.119166,0.12264 0.119166,0.36676 z"
         style="font-weight:bold;-inkscape-font-specification:'sans-serif Bold';fill:#ffffff"
         id="path633340" />
      <path
         d="m 64.230511,141.26115 q -0.0671,0.0174 -0.142305,0.0266 -0.0752,0.0104 -0.183956,0.0104 -0.24296,0 -0.362126,-0.0983 -0.118009,-0.0983 -0.118009,-0.33667 v -0.6074 h -0.171229 v -0.2823 h 0.171229 v -0.37138 h 0.416503 v 0.37138 h 0.389893 v 0.2823 h -0.389893 v 0.46047 q 0,0.0683 0.0012,0.11916 0.0012,0.0509 0.01851,0.0914 0.0162,0.0405 0.05669,0.0648 0.04165,0.0231 0.120323,0.0231 0.03239,0 0.08446,-0.0139 0.05322,-0.0139 0.07404,-0.0255 h 0.03471 z"
         style="font-weight:bold;-inkscape-font-specification:'sans-serif Bold';fill:#ffffff"
         id="path633342" />
      <path
         d="m 65.758846,140.70003 h -0.953329 q 0.0093,0.15272 0.115695,0.2337 0.107597,0.081 0.315848,0.081 0.131893,0 0.255687,-0.0474 0.123794,-0.0474 0.195525,-0.10181 h 0.04628 v 0.33436 q -0.141148,0.0567 -0.266099,0.0822 -0.124951,0.0255 -0.276512,0.0255 -0.39105,0 -0.599302,-0.17586 -0.208251,-0.17586 -0.208251,-0.50096 0,-0.32163 0.196682,-0.50906 0.197839,-0.18858 0.541454,-0.18858 0.317005,0 0.476665,0.16081 0.159659,0.15966 0.159659,0.46047 z m -0.414189,-0.24412 q -0.0035,-0.13073 -0.06479,-0.19668 -0.06132,-0.066 -0.190898,-0.066 -0.120323,0 -0.197839,0.0625 -0.07752,0.0625 -0.08677,0.20015 z"
         style="font-weight:bold;-inkscape-font-specification:'sans-serif Bold';fill:#ffffff"
         id="path633344" />
      <path
         d="m 66.994472,140.3703 h -0.03702 q -0.02661,-0.009 -0.08561,-0.0139 -0.059,-0.005 -0.09834,-0.005 -0.08908,0 -0.157346,0.0116 -0.06826,0.0116 -0.146933,0.0393 v 0.87003 H 66.05272 v -1.29926 h 0.416503 v 0.1909 q 0.137678,-0.11801 0.23949,-0.15619 0.101812,-0.0393 0.187426,-0.0393 0.02198,0 0.04975,0.001 0.02777,0.001 0.04859,0.003 z"
         style="font-weight:bold;-inkscape-font-specification:'sans-serif Bold';fill:#ffffff"
         id="path633346" />
      <path
         d="m 68.58644,140.60516 q 0,0.16081 -0.04975,0.29271 -0.04859,0.13189 -0.128422,0.2175 -0.0833,0.0902 -0.188583,0.13652 -0.105283,0.0463 -0.225606,0.0463 -0.111067,0 -0.188583,-0.0243 -0.07752,-0.0231 -0.158503,-0.0659 v 0.54145 H 67.23049 v -1.77592 h 0.416503 v 0.13536 q 0.09603,-0.0764 0.195525,-0.12379 0.100655,-0.0474 0.231391,-0.0474 0.24296,0 0.377167,0.17817 0.135363,0.17817 0.135363,0.48939 z m -0.42923,0.008 q 0,-0.18974 -0.06479,-0.27536 -0.06479,-0.0856 -0.204781,-0.0856 -0.059,0 -0.12148,0.0185 -0.06248,0.0173 -0.119166,0.0509 v 0.65368 q 0.04165,0.0162 0.08908,0.0208 0.04744,0.005 0.09371,0.005 0.165444,0 0.246431,-0.096 0.08099,-0.0972 0.08099,-0.29155 z"
         style="font-weight:bold;-inkscape-font-specification:'sans-serif Bold';fill:#ffffff"
         id="path633348" />
      <path
         d="m 69.829007,140.3703 h -0.03702 q -0.02661,-0.009 -0.08561,-0.0139 -0.059,-0.005 -0.09834,-0.005 -0.08908,0 -0.157345,0.0116 -0.06826,0.0116 -0.146933,0.0393 v 0.87003 h -0.416504 v -1.29926 h 0.416504 v 0.1909 q 0.137677,-0.11801 0.239489,-0.15619 0.101812,-0.0393 0.187426,-0.0393 0.02198,0 0.04975,0.001 0.02777,0.001 0.04859,0.003 z"
         style="font-weight:bold;-inkscape-font-specification:'sans-serif Bold';fill:#ffffff"
         id="path633350" />
      <path
         d="m 71.344616,140.70003 h -0.95333 q 0.0093,0.15272 0.115696,0.2337 0.107596,0.081 0.315848,0.081 0.131893,0 0.255687,-0.0474 0.123794,-0.0474 0.195525,-0.10181 h 0.04628 v 0.33436 q -0.141148,0.0567 -0.266099,0.0822 -0.124951,0.0255 -0.276512,0.0255 -0.39105,0 -0.599302,-0.17586 -0.208252,-0.17586 -0.208252,-0.50096 0,-0.32163 0.196682,-0.50906 0.197839,-0.18858 0.541455,-0.18858 0.317005,0 0.476664,0.16081 0.15966,0.15966 0.15966,0.46047 z m -0.414189,-0.24412 q -0.0035,-0.13073 -0.06479,-0.19668 -0.06132,-0.066 -0.190897,-0.066 -0.120323,0 -0.197839,0.0625 -0.07752,0.0625 -0.08677,0.20015 z"
         style="font-weight:bold;-inkscape-font-specification:'sans-serif Bold';fill:#ffffff"
         id="path633352" />
      <path
         d="m 72.469175,141.26115 q -0.0671,0.0174 -0.142305,0.0266 -0.0752,0.0104 -0.183956,0.0104 -0.24296,0 -0.362126,-0.0983 -0.11801,-0.0983 -0.11801,-0.33667 v -0.6074 h -0.171229 v -0.2823 h 0.171229 v -0.37138 h 0.416504 v 0.37138 h 0.389893 v 0.2823 h -0.389893 v 0.46047 q 0,0.0683 0.0012,0.11916 0.0012,0.0509 0.01851,0.0914 0.0162,0.0405 0.05669,0.0648 0.04165,0.0231 0.120324,0.0231 0.03239,0 0.08446,-0.0139 0.05322,-0.0139 0.07404,-0.0255 h 0.03471 z"
         style="font-weight:bold;-inkscape-font-specification:'sans-serif Bold';fill:#ffffff"
         id="path633354" />
      <path
         d="m 73.99751,140.70003 h -0.95333 q 0.0093,0.15272 0.115696,0.2337 0.107596,0.081 0.315848,0.081 0.131893,0 0.255687,-0.0474 0.123794,-0.0474 0.195525,-0.10181 h 0.04628 v 0.33436 q -0.141148,0.0567 -0.266099,0.0822 -0.124951,0.0255 -0.276512,0.0255 -0.39105,0 -0.599302,-0.17586 -0.208252,-0.17586 -0.208252,-0.50096 0,-0.32163 0.196683,-0.50906 0.197838,-0.18858 0.541454,-0.18858 0.317005,0 0.476664,0.16081 0.15966,0.15966 0.15966,0.46047 z m -0.414189,-0.24412 q -0.0035,-0.13073 -0.06479,-0.19668 -0.06132,-0.066 -0.190897,-0.066 -0.120323,0 -0.197839,0.0625 -0.07752,0.0625 -0.08677,0.20015 z"
         style="font-weight:bold;-inkscape-font-specification:'sans-serif Bold';fill:#ffffff"
         id="path633356" />
      <path
         d="m 75.233135,140.3703 h -0.03702 q -0.02661,-0.009 -0.08561,-0.0139 -0.059,-0.005 -0.09834,-0.005 -0.08908,0 -0.157345,0.0116 -0.06826,0.0116 -0.146933,0.0393 v 0.87003 h -0.416504 v -1.29926 h 0.416504 v 0.1909 q 0.137677,-0.11801 0.239489,-0.15619 0.101812,-0.0393 0.187426,-0.0393 0.02198,0 0.04975,0.001 0.02777,0.001 0.04859,0.003 z"
         style="font-weight:bold;-inkscape-font-specification:'sans-serif Bold';fill:#ffffff"
         id="path633358" />
    </g>
    <path
       id="rect442764"
       style="fill:none;fill-opacity:0.904135;stroke:#000000;stroke-width:0.42175;stroke-linecap:square;stroke-linejoin:round;stroke-dasharray:2.53045, 0.843493;paint-order:fill markers stroke"
       d="m 25.221442,15.621242 h 73.56223 c 1.508518,0 2.722958,1.264425 2.722958,2.834998 v 21.749675 c 0,1.57061 -1.21444,2.835011 -2.722958,2.835011 h -73.56223 c -1.508525,0 -2.722968,-1.264401 -2.722968,-2.835011 V 18.45624 c 0,-1.570573 1.214443,-2.834998 2.722968,-2.834998 z" />
    <path
       style="fill:#1b1b1b;fill-opacity:1;stroke:none;stroke-width:0.1975px;stroke-linecap:square;stroke-linejoin:miter;stroke-opacity:1"
       d="m 99.084792,28.907412 v 1.904172 h 3.657858 v 0.761634 l 1.82893,-2.285015 0.32121,-0.461743 -2.15014,-2.584817 v 0.761634 h -3.657858"
       id="path504176"
       sodipodi:nodetypes="ccccccccc" />
    <g
       aria-label="User"
       id="text466213"
       style="font-weight:bold;font-size:3.53277px;line-height:1.25;-inkscape-font-specification:'sans-serif Bold';stroke-width:0.220798"
       transform="matrix(1.0504642,0,0,1.0936868,-4.2513402,-110.70381)">
      <path
         d="m 8.7445523,105.64063 q 0,0.4761 -0.2897976,0.72967 -0.2897975,0.25357 -0.8538677,0.25357 -0.5640702,0 -0.8538677,-0.25357 -0.2880726,-0.25357 -0.2880726,-0.72795 v -1.64046 H 7.124791 v 1.60251 q 0,0.26738 0.1121241,0.39848 0.112124,0.1311 0.3639719,0.1311 0.2483979,0 0.3622469,-0.12593 0.115574,-0.12592 0.115574,-0.40365 v -1.60251 h 0.6658444 z"
         id="path633735" />
      <path
         d="m 11.012908,105.9563 q 0,0.30015 -0.269098,0.48472 -0.269097,0.18285 -0.736568,0.18285 -0.2587482,0 -0.4691964,-0.0483 -0.2104482,-0.0483 -0.3380971,-0.10695 v -0.51059 h 0.056925 q 0.046575,0.0328 0.1069491,0.0725 0.0621,0.038 0.1742235,0.0828 0.096599,0.0397 0.2190731,0.069 0.122474,0.0276 0.2621978,0.0276 0.182848,0 0.270822,-0.0397 0.08797,-0.0414 0.08797,-0.12075 0,-0.0707 -0.05175,-0.10177 -0.05175,-0.0328 -0.196648,-0.0621 -0.069,-0.0155 -0.1880233,-0.0328 -0.117299,-0.019 -0.2138982,-0.0448 -0.2639228,-0.069 -0.3915717,-0.2139 -0.1276489,-0.14662 -0.1276489,-0.36397 0,-0.27944 0.2639228,-0.46402 0.2656477,-0.1863 0.7244933,-0.1863 0.217348,0 0.415721,0.0449 0.200099,0.0431 0.312223,0.0931 v 0.4899 h -0.05348 q -0.137999,-0.0949 -0.315672,-0.15353 -0.175949,-0.0604 -0.357072,-0.0604 -0.150074,0 -0.2535724,0.0414 -0.1017741,0.0414 -0.1017741,0.1173 0,0.069 0.046575,0.10522 0.046575,0.0362 0.2190735,0.0725 0.09487,0.019 0.203548,0.038 0.110399,0.0172 0.220798,0.0448 0.244948,0.0638 0.362247,0.20182 0.117299,0.13628 0.117299,0.34155 z"
         id="path633737" />
      <path
         d="m 13.333014,105.71653 h -1.421388 q 0.0138,0.2277 0.172498,0.34845 0.160424,0.12074 0.470921,0.12074 0.196648,0 0.381222,-0.0707 0.184573,-0.0707 0.291522,-0.1518 h 0.069 v 0.49852 q -0.210448,0.0845 -0.396747,0.12248 -0.186298,0.038 -0.412271,0.038 -0.583045,0 -0.893543,-0.2622 -0.310497,-0.2622 -0.310497,-0.74692 0,-0.47955 0.293247,-0.75899 0.294973,-0.28118 0.807294,-0.28118 0.472646,0 0.710694,0.23978 0.238048,0.23804 0.238048,0.68654 z m -0.617545,-0.36397 q -0.0052,-0.19493 -0.0966,-0.29325 -0.09142,-0.0983 -0.284623,-0.0983 -0.179398,0 -0.294972,0.0931 -0.115574,0.0931 -0.129374,0.29843 z"
         id="path633739" />
      <path
         d="m 15.175297,105.22491 h -0.0552 q -0.03968,-0.0138 -0.127649,-0.0207 -0.08797,-0.007 -0.146624,-0.007 -0.132824,0 -0.234598,0.0173 -0.101774,0.0172 -0.219073,0.0587 v 1.29719 h -0.620995 v -1.93716 h 0.620995 v 0.28462 q 0.205273,-0.17595 0.357072,-0.23287 0.151799,-0.0587 0.279448,-0.0587 0.03277,0 0.07417,0.002 0.0414,0.002 0.07245,0.005 z"
         id="path633741" />
    </g>
  </g>
</svg>
